<?xml version="1.0" encoding="UTF-8" standalone="no"?>
<!-- Created with Inkscape (http://www.inkscape.org/) -->
<svg xmlns:svg="http://www.w3.org/2000/svg" xmlns="http://www.w3.org/2000/svg" version="1.1" width="120" height="143" id="svg2">
  <defs id="defs6"/>
  <rect width="6" height="37.7" x="111.2" y="102.8" id="rect3" style="fill: #FF8C00"/>
  <path d="M 16.5 101.8 c -1.9 0 -3.5 1.2 -4.1 2.8 l 0 0 l -10.7 35.8 l 6.4 0 l 2.5 -9.7 l 11.9 0 l 2.6 9.7 l 6.6 0 l -11 -35.8 l 0 0 C 20 103 18.4 101.8 16.5 101.8 z m -0.1 8.2 l 4.1 15.7 l -8.2 0 l 4 -15.7 z" id="path5" style="fill: #FF8C00"/>
  <path d="M 28.2 102.6 l 0 5.1 l 9.3 0 l 0 32.8 l 6 0 l 0 -32.8 l 9.3 0 l 0 -5.1 l -24.7 0 z" id="path7" style="fill: #FF8C00"/>
  <path d="M 35.7 55.2 C 45.1 40.9 44.9 10.5 44.9 3 L 51.8 3 C 51.8 5.9 53.4 34.9 48.5 53.2 C 43.6 71.4 25.3 91.9 3.2 91.9 l 0 -13 c 6.5 0 23 -9.4 32.5 -23.7 z" id="path13" style="fill: #FF8C00"/>
  <path d="M 98.7 126.8 c -0.2 -0.3 -0.3 -0.7 -0.3 -1.1 c 0 -0.4 0.1 -0.7 0.2 -1 c 0.2 -0.4 0.6 -0.5 0.9 -0.7 c 3.1 -1.9 5.3 -5.9 5.3 -10.5 c 0 -6.2 -3.9 -11.3 -8.7 -11.7 c -0.6 -0.1 -2 -0.1 -2 -0.1 l -6.8 0 l 0 0 c -2.4 0 -4.3 2.6 -4.3 5.7 l 0 0 l 0 32.9 l 5.8 0 l 0 -30.6 l 0 0 c 0 -1 0.6 -1.7 1.3 -1.7 l 3.9 0 c 0.4 0 1.4 0 1.6 0.1 l 0 0 c 1.7 0.2 3.2 1.8 3.6 4 c 0 0.1 0 0.2 0.1 0.3 c 0 0 0 0 0 0 c 0 0.1 0 0.3 0 0.4 c 0 0.2 0 0.4 0 0.6 c 0 2 -0.8 3.8 -2.1 4.7 c -0.2 0.2 -0.5 0.4 -0.8 0.5 c -0.2 0.1 -0.4 0.2 -0.7 0.3 c -1.6 0.7 -2.2 1.2 -2.9 2 c -0.7 1 -1.2 2.4 -1.2 4 c 0 1.4 0.4 2.8 1 3.8 l 7.4 11.7 l 6.9 0 l -8.5 -13.7" id="path9" style="fill: #FF8C00"/>
  <path d="M 65 101.8 c -1.9 0 -3.5 1.2 -4.1 2.8 l 0 0 l -10.7 35.8 l 6.4 0 l 2.5 -9.7 l 11.9 0 l 2.6 9.7 l 6.6 0 l -11 -35.8 l 0 0 c -0.6 -1.7 -2.2 -2.8 -4.1 -2.8 z m -0.1 8.2 l 4.1 15.7 l -8.2 0 l 4 -15.7 z" id="path2852" style="fill: #FF8C00"/>
  <rect width="12.5" height="89.1" x="53.8" y="3" id="rect2854" style="fill: #FF8C00"/>
  <path d="M 84.3 55.2 C 74.9 40.9 75.1 10.5 75.1 3 l -7 0 c 0 2.9 -1.5 31.9 3.4 50.2 c 4.9 18.3 23.2 38.8 45.3 38.8 l 0 -13 c -6.5 0 -23 -9.4 -32.5 -23.7 z" id="path2858" style="fill: #FF8C00"/>
</svg>