<?xml version="1.0" encoding="UTF-8" standalone="no"?>
<!-- Created with Inkscape (http://www.inkscape.org/) -->
<svg xmlns:dc="http://purl.org/dc/elements/1.1/" xmlns:cc="http://creativecommons.org/ns#" xmlns:rdf="http://www.w3.org/1999/02/22-rdf-syntax-ns#" xmlns:svg="http://www.w3.org/2000/svg" xmlns="http://www.w3.org/2000/svg" xmlns:sodipodi="http://sodipodi.sourceforge.net/DTD/sodipodi-0.dtd" xmlns:inkscape="http://www.inkscape.org/namespaces/inkscape" width="210.4" height="110.7" id="svg2549" sodipodi:version="0.32" inkscape:version="0.46" version="1" sodipodi:docname="Bally Technologies logo.svg" inkscape:output_extension="org.inkscape.output.svg.inkscape">
  <defs id="defs2551">
    <inkscape:perspective sodipodi:type="inkscape:persp3d" inkscape:vp_x="0 : 526.18109 : 1" inkscape:vp_y="0 : 1000 : 0" inkscape:vp_z="744.09448 : 526.18109 : 1" inkscape:persp3d-origin="372.04724 : 350.78739 : 1" id="perspective2557"/>
  </defs>
  <sodipodi:namedview id="base" pagecolor="#ffffff" bordercolor="#666666" borderopacity="1.0" gridtolerance="10000" guidetolerance="10" objecttolerance="10" inkscape:pageopacity="0.0" inkscape:pageshadow="2" inkscape:zoom="1.559283" inkscape:cx="105.20782" inkscape:cy="55.338669" inkscape:document-units="px" inkscape:current-layer="layer1" showgrid="false" showguides="true" inkscape:guide-bbox="true" inkscape:window-width="1024" inkscape:window-height="721" inkscape:window-x="-4" inkscape:window-y="-4"/>
  <metadata id="metadata2554">
    <rdf:RDF>
      <cc:Work rdf:about="">
        <dc:format>image/svg+xml</dc:format>
        <dc:type rdf:resource="http://purl.org/dc/dcmitype/StillImage"/>
      </cc:Work>
    </rdf:RDF>
  </metadata>
  <g inkscape:label="Layer 1" inkscape:groupmode="layer" id="layer1" transform="translate(-198.8,-416.6)">
    <path style="fill: #FF8C00; stroke: none; stroke-width: 1px; stroke-linecap: butt; stroke-linejoin: miter; font-family: [object Object]; font-size: 1376.1px; font-style: normal; font-weight: normal; text-align: start; line-height: 125%; text-anchor: start; fill-opacity: 1; stroke-opacity: 1" d="M 277.9 479.6 L 277.9 481.1 C 277.9 483.5 277.1 485.8 275.5 488.1 C 274.2 490 272.3 491.7 269.8 493.2 C 267.9 494.4 265.9 495.4 263.8 496 C 261.7 496.7 259.8 497 258.3 497 C 255.6 497 253.5 496.7 252 496 C 250.5 495.3 249.5 494.4 249 493.4 C 248.5 492.3 248.2 491.3 248.2 490.2 C 248.2 488.8 248.7 487.5 249.7 486.5 C 250.6 485.4 251.8 485 253.1 485.2 C 254.3 485.3 255.2 485.8 255.8 486.6 C 256.4 487.4 256.8 488.4 256.9 489.6 C 256.9 491 256.7 492 256.2 492.7 C 260.1 492 263.4 490.5 266.1 488.1 C 268.7 485.6 270.1 482.8 270.1 479.6 L 270.1 479 C 270.1 477.1 269.3 475.1 267.7 473 C 265.9 470.7 264.1 468.3 262.3 466 C 262.3 463.7 264.8 461.5 269.7 459.4 C 277.2 456.1 281.8 454 283.3 452.8 C 288.3 449.4 290.7 444.9 290.7 439.3 C 290.7 431.6 285.3 427.7 274.6 427.7 C 269.5 427.7 264.4 428.7 259.4 430.6 C 254.4 432.6 249.3 435.7 244 440 C 239.7 443.4 235.6 447.5 231.6 452 C 227.7 456.6 224.3 461.3 221.4 466.2 C 218.6 471 216.6 475.5 215.4 479.6 C 214.7 482.2 214.4 484.6 214.4 486.7 C 214.4 489.2 214.6 491.4 215.1 493.2 C 216.4 497.4 219 499.4 223 499.4 C 225 499.4 226.8 498.9 228.4 497.9 C 230.1 496.8 231.8 495.3 233.4 493.2 C 236 489.8 238.5 485.2 241 479.6 L 246.9 465.9 L 248.7 462.4 C 252 456.2 254.4 452 255.8 449.7 C 259.4 444.3 262.6 440.8 265.6 439.1 C 267.2 438.2 268.8 437.5 270.4 436.9 C 272 436.4 273.4 436.1 274.7 436.1 C 275.8 436.1 276.4 436.4 276.5 437 C 276.5 437.5 275.2 438.6 272.5 440.2 C 270.7 441.3 269 442.9 267.4 444.9 C 264.6 448.4 260.8 455.4 256 466 L 254 470.4 L 249.9 479.6 C 248.6 482.4 247.7 484.2 247.3 485 C 245.8 487.9 244.1 490.7 242.2 493.2 C 241 494.9 239.6 496.5 238.1 497.8 C 235.9 499.9 233.5 501.5 231.2 502.4 C 228.9 503.4 226.5 503.9 224.1 503.9 C 220.6 503.9 217.4 503 214.4 501 C 211.4 499.1 209.2 496.5 207.8 493.2 C 206.7 490.9 206.1 488.4 206.1 485.8 C 206.1 485.2 206.2 484.4 206.3 483.4 L 207 479.6 C 207.5 477.3 208.2 475 209 472.7 C 209.8 470.4 210.7 468.2 211.8 466 C 217.8 453.7 227.2 443.5 240.1 435.4 C 252.2 427.8 264.1 423.9 275.6 423.9 C 283.5 423.9 289.7 425.4 294.1 428.2 C 298.4 431.1 300.6 435.4 300.6 441.2 C 300.6 448.4 297.2 453.9 290.2 457.7 C 282.7 460.2 275.2 462.6 267.7 465.1 L 267.9 465.9 C 270.9 467.7 273.3 469.6 275.1 471.6 C 277 473.6 277.9 476.2 277.9 479.6 L 277.9 479.6 z M 339.3 460.1 C 342 455.6 344.4 451 346.7 446.1 C 349.3 440.6 350.6 436.9 350.6 435 C 350.6 434.3 350.4 433.9 349.9 433.9 C 348.7 433.9 346.6 435.7 343.5 439.2 C 340.4 442.7 337.9 446.2 336.1 449.7 C 334.2 453.1 332.9 455.6 332.2 457.3 C 330.8 460.2 329.7 463.1 328.6 466 C 327.4 469.7 326.4 473.6 325.9 477.8 C 329.8 473.7 333.1 469.8 335.6 466 L 339.3 460.1 z M 362.2 462.5 C 363.6 459.7 365 456.9 366.2 454.2 C 367.7 450.8 368.5 448.5 368.5 447.3 C 368.5 446.3 368.1 445.8 367.4 445.8 C 366.4 445.8 364.7 447.4 362.2 450.6 C 360 453.4 357.9 456.6 355.8 460.2 L 352.9 466 C 352 468 351.3 469.8 350.8 471.5 C 350.3 473.3 349.8 475.5 349.4 478.1 C 351.7 476.2 353.8 474.3 355.6 472.3 C 357.4 470.3 358.9 468.2 360.3 466 L 362.2 462.5 z M 391.2 479.6 L 384.5 493.2 L 374.7 513.5 C 373.7 515.6 372.8 517.1 372 517.9 C 371.1 519 370.1 519.5 369.1 519.5 C 368.6 519.5 368.2 519.4 367.7 519.1 C 366.5 518.4 365.8 517.3 365.8 516.1 C 365.8 515 366.2 513.9 366.9 512.5 L 377.2 493.2 L 378.9 490.1 C 377.7 491.3 376.3 492.3 374.6 493.2 C 372.3 494.4 370.3 495 368.6 495 C 366.8 495 365.4 494.4 364.4 493.2 C 363.6 492.3 363 491 362.5 489.3 C 361.4 490.6 360.1 491.9 358.4 493.2 C 357 494.2 355.5 495.1 354.1 495.7 C 352.7 496.3 351.3 496.6 350 496.6 C 347.3 496.6 345.1 495.5 343.4 493.2 C 342.8 492.5 342.2 491.6 341.6 490.6 C 341.3 491 340.8 491.5 340.3 492 C 339.8 492.6 339.3 493 338.8 493.3 C 337 494.7 335 495.8 332.9 496.7 C 330.8 497.6 328.8 498.1 327.1 498.1 C 325.4 498.1 323.9 497.7 322.6 496.8 C 321.3 495.9 320.2 494.8 319.3 493.2 L 318.3 491.6 L 316.5 493.2 C 312.7 496.5 309 498.2 305.3 498.2 C 303.6 498.2 302.1 497.7 300.8 496.9 C 299.6 496 298.5 494.8 297.6 493.2 L 296.7 491.5 L 295 493.2 C 293.5 494.6 292 495.6 290.6 496.2 C 289.2 496.8 287.6 497.1 285.9 497.1 C 282.9 497.1 280.9 495.8 279.8 493.2 C 279 491.6 278.7 489.6 278.7 487.3 C 278.7 485.2 279.3 482.6 280.6 479.6 C 281.7 477.1 283.1 474.7 284.7 472.4 C 286.4 470.2 288.3 468 290.5 466 C 293.3 463.5 296.1 461.5 299.2 460.1 C 302.2 458.6 305.3 457.9 308.6 457.9 C 312.5 457.9 314.5 459.5 314.5 462.6 C 314.6 463.9 314.1 465 313 466 C 312.3 466.6 311.6 466.9 310.8 466.9 C 309.7 466.9 308.8 466.9 308.2 466.7 C 307.6 466.5 307.1 466.2 306.8 465.8 C 306.4 465.5 306.1 465 306 464.4 C 305.9 463.7 305.7 463.4 305.5 463.3 C 305.2 463.3 305 463.2 304.7 463.2 C 303.1 463.2 301.2 464.1 298.8 466 C 296.8 467.6 294.9 469.6 293 471.9 C 291.2 474.3 289.8 476.8 288.7 479.4 C 287.5 482.1 287 484.5 287 486.8 C 287 487.8 287.1 488.7 287.4 489.5 C 287.7 490.3 288.4 490.6 289.6 490.6 C 291 490.6 292.7 489.5 294.8 487.1 C 296.5 485.3 298.3 482.7 300.3 479.6 C 301.2 478 302.2 476.4 303.2 474.5 C 304.2 472.7 305 471.3 305.6 470.2 C 305.9 469.7 307.1 469.5 309.1 469.5 C 310.4 469.5 311.5 469.6 312.3 469.9 C 313.1 470.1 313.5 470.4 313.4 470.9 L 309.5 479.6 C 308.6 481.6 308.1 483 307.8 483.7 C 307.4 484.8 306.9 486.1 306.4 487.8 C 306.2 488.3 306.2 488.6 306.2 488.8 C 306.2 489.5 306.5 489.9 307 490.2 C 307.5 490.5 308.3 490.6 309.1 490.6 C 310.1 490.6 311.6 489.9 313.6 488.4 C 315.7 486.9 317 485.8 317.5 485.1 C 317.5 484.1 317.5 483.2 317.5 482.4 C 317.5 481.5 317.5 480.6 317.7 479.6 C 317.7 477.3 317.9 475.2 318.4 473.1 C 318.9 471 319.7 468.7 320.6 466 C 321.1 464.7 321.6 463.4 322.2 462.1 C 322.7 460.8 323.3 459.5 324 458.1 C 327.6 450.4 331.9 443.7 337 437.9 C 342.5 431.5 347.2 428.3 351 428.3 C 352.9 428.3 354.2 428.9 355 429.9 C 355.8 431 356.2 432.4 356.2 434.4 C 356.2 437.6 355.1 441.8 353 446.9 C 351.5 450.6 349.5 454.5 347 458.7 C 346.3 459.9 345.6 461.1 344.9 462.1 C 344.3 463.2 343.4 464.5 342.4 466 C 340.7 468.4 339 470.7 337.3 472.8 C 335.5 475 333.5 477.2 331.1 479.6 L 326 484.3 C 326 485.9 326.5 487.4 327.5 488.7 C 328.5 490 330 490.6 331.9 490.6 C 333.2 490.6 334.8 490 336.8 488.7 C 338.4 487.7 339.7 486.6 340.8 485.5 L 341.4 479.6 C 342.1 475 343.6 470.5 345.7 466 L 347.8 462.1 C 350.7 456.5 354.5 451.3 359.1 446.5 C 363.7 441.7 367.2 439.3 369.6 439.3 C 371.2 439.3 372.4 439.8 373 440.7 C 373.7 441.6 374 442.9 374 444.7 C 374 447.4 373.3 450.7 371.7 454.7 C 370.1 458.6 368.2 462.4 366 466 C 364.4 468.5 362.8 470.8 361.1 473 C 359 475.6 357 477.8 355.1 479.6 C 353.6 481 351.9 482.3 350 483.5 C 349.9 483.7 349.9 484.1 349.9 484.6 C 349.9 485.8 350.2 486.9 350.9 487.7 C 351.5 488.5 352.7 488.9 354.4 488.9 C 356 488.9 357.6 488.2 359.2 486.7 C 360.9 485.3 362.6 482.9 364.3 479.6 L 364.9 478.4 C 365.9 476.2 367.1 474 368.4 471.7 C 369.4 469.9 370.6 468 371.8 466 L 375.8 459.6 C 375.9 459.4 376.4 459.2 377.2 459 C 378.1 458.8 378.9 458.7 379.7 458.7 C 380.9 458.7 381.8 458.8 382.5 459.1 C 383.2 459.3 383.5 459.7 383.2 460.3 C 383.1 460.4 382.9 460.9 382.5 461.6 C 381.8 462.9 381 464.3 380.1 466 C 378.8 468 377.6 470.2 376.3 472.6 C 374.8 475.4 373.6 477.7 372.8 479.6 C 371.5 482.4 370.8 484.6 370.8 486.1 C 370.8 487.3 371.3 487.9 372.3 487.9 C 373.8 487.9 375.3 487.3 376.7 486.2 C 378.1 485 379.9 482.8 382.1 479.6 C 383.6 477.3 385 475 386.3 472.7 C 387.5 470.5 388.7 468.2 389.9 466 L 392.6 460.4 C 392.8 460.1 393.3 459.8 394.1 459.7 C 394.9 459.6 395.7 459.6 396.6 459.6 C 397.9 459.6 398.9 459.7 399.6 459.9 C 400.4 460.1 400.7 460.5 400.4 460.9 L 397.9 466 L 391.2 479.6 z" id="text2559"/>
  </g>
</svg>