<?xml version="1.0" encoding="UTF-8" standalone="no"?>
<!-- Created with Inkscape (http://www.inkscape.org/) -->
<svg xmlns:dc="http://purl.org/dc/elements/1.1/" xmlns:cc="http://creativecommons.org/ns#" xmlns:rdf="http://www.w3.org/1999/02/22-rdf-syntax-ns#" xmlns:svg="http://www.w3.org/2000/svg" xmlns="http://www.w3.org/2000/svg" xmlns:sodipodi="http://sodipodi.sourceforge.net/DTD/sodipodi-0.dtd" xmlns:inkscape="http://www.inkscape.org/namespaces/inkscape" width="189.74001" height="44.369999" id="svg1901" sodipodi:version="0.32" inkscape:version="0.46" sodipodi:docname="chicago_coin.svg" sodipodi:docbase="/home/tsoots/ohj/translations/po" inkscape:output_extension="org.inkscape.output.svg.inkscape" version="1.0">
  <defs id="defs1903">
    <inkscape:perspective sodipodi:type="inkscape:persp3d" inkscape:vp_x="0 : 526.18109 : 1" inkscape:vp_y="0 : 1000 : 0" inkscape:vp_z="744.09448 : 526.18109 : 1" inkscape:persp3d-origin="372.04724 : 350.78739 : 1" id="perspective7"/>
    <inkscape:perspective id="perspective2444" inkscape:persp3d-origin="372.04724 : 350.78739 : 1" inkscape:vp_z="744.09448 : 526.18109 : 1" inkscape:vp_y="0 : 1000 : 0" inkscape:vp_x="0 : 526.18109 : 1" sodipodi:type="inkscape:persp3d"/>
    <inkscape:perspective id="perspective2496" inkscape:persp3d-origin="372.04724 : 350.78739 : 1" inkscape:vp_z="744.09448 : 526.18109 : 1" inkscape:vp_y="0 : 1000 : 0" inkscape:vp_x="0 : 526.18109 : 1" sodipodi:type="inkscape:persp3d"/>
    <inkscape:perspective id="perspective2546" inkscape:persp3d-origin="372.04724 : 350.78739 : 1" inkscape:vp_z="744.09448 : 526.18109 : 1" inkscape:vp_y="0 : 1000 : 0" inkscape:vp_x="0 : 526.18109 : 1" sodipodi:type="inkscape:persp3d"/>
    <inkscape:perspective id="perspective2616" inkscape:persp3d-origin="372.04724 : 350.78739 : 1" inkscape:vp_z="744.09448 : 526.18109 : 1" inkscape:vp_y="0 : 1000 : 0" inkscape:vp_x="0 : 526.18109 : 1" sodipodi:type="inkscape:persp3d"/>
  </defs>
  <sodipodi:namedview id="base" pagecolor="#ffffff" bordercolor="#666666" borderopacity="1.0" inkscape:pageopacity="0.0" inkscape:pageshadow="2" inkscape:zoom="1.4096164" inkscape:cx="76.388061" inkscape:cy="-36.798024" inkscape:document-units="px" inkscape:current-layer="layer2" gridtolerance="10000" inkscape:window-width="1022" inkscape:window-height="718" inkscape:window-x="0" inkscape:window-y="0" showgrid="false" showguides="true" inkscape:guide-bbox="true">
    <sodipodi:guide orientation="0,1" position="16.263456,278.60007" id="guide2450"/>
  </sodipodi:namedview>
  <metadata id="metadata1906">
    <rdf:RDF>
      <cc:Work rdf:about="">
        <dc:format>image/svg+xml</dc:format>
        <dc:type rdf:resource="http://purl.org/dc/dcmitype/StillImage"/>
      </cc:Work>
    </rdf:RDF>
  </metadata>
  <g inkscape:label="Taso 1" inkscape:groupmode="layer" id="layer1" style="opacity:1;display:inline" transform="translate(-13.420495,-739.8481)">
    <path style="opacity:1;fill:#f92424;fill-opacity:1;fill-rule:evenodd;stroke:#000000;stroke-width:1;stroke-linecap:butt;stroke-linejoin:round;stroke-miterlimit:4;stroke-dasharray:none;stroke-dashoffset:0;stroke-opacity:1" d="M 125.77662,763.77423 C 127.1128,763.96177 127.47586,762.44634 127.89794,761.03419" id="path3421" sodipodi:nodetypes="cc"/>
  </g>
  <g inkscape:groupmode="layer" id="layer2" inkscape:label="v" transform="translate(-13.420495,-739.8481)" style="display:inline">
    <path id="path3434" style="opacity:1;fill:#FF8C00;fill-opacity:1;fill-rule:evenodd;stroke:#000000;stroke-width:1;stroke-linecap:butt;stroke-linejoin:round;stroke-miterlimit:4;stroke-dasharray:none;stroke-dashoffset:0;stroke-opacity:1;display:inline" d="M 161.45258,748.89205 C 163.26191,745.54355 161.50476,745.11308 158.18221,748.45011 C 152.07976,754.39015 146.39933,760.63938 145.77122,768.10893 C 145.74232,772.2126 149.4603,771.73684 152.2343,769.98654 C 154.12747,768.54713 154.98549,769.01608 155.79572,767.18844 C 156.83809,764.95732 161.74707,761.19916 163.96407,760.33076 C 167.98632,758.51836 169.25185,760.27974 168.46115,761.22537 C 167.31779,762.86729 170.64274,763.62183 172.76629,762.15031 C 173.88587,761.23392 175.00546,760.4501 176.12504,759.32188 C 178.89614,757.16015 181.19172,759.01505 179.83736,761.08965 C 175.25994,766.48601 171.92476,769.30308 178.42314,768.42588 C 180.61173,768.2446 183.01326,763.31669 185.87365,760.25754 C 188.68864,757.20846 190.39903,759.87091 188.14586,763.03419 C 189.00406,761.63453 190.09463,760.75255 191.20511,760.25604 C 194.41916,758.91562 198.07272,760.38472 196.45436,762.06192 C 194.55139,763.91165 192.61179,766.14135 191.76978,769.57493 C 193.91298,769.26123 196.19976,768.56468 198.84085,766.92328 C 201.45615,765.15226 201.11625,766.50256 198.68996,769.02315 C 197.55647,770.05039 190.48843,775.08253 187.35036,771.16592 C 186.47252,769.7093 187.33522,767.70877 189.11813,765.42067 C 185.71646,766.60847 184.1766,768.73284 182.04706,770.90075 C 180.71875,772.5721 179.8826,771.94668 179.04186,771.34269 C 177.67312,771.02149 176.52527,769.92717 174.53405,771.78464 C 170.0715,772.92806 167.70029,772.09963 171.44046,765.50906 C 170.32811,764.4784 168.84044,764.94898 167.02104,766.7465 C 163.0982,773.29533 154.36692,776.61718 155.79572,770.28203 C 153.11879,771.49505 149.87225,775.20568 145.3659,773.72918 C 138.91765,769.77467 144.81151,759.02127 146.96761,755.69796 C 150.87674,749.45767 160.86572,741.24024 164.7614,742.47187 C 169.48374,744.06874 164.67248,750.49475 162.55744,753.26727 C 161.62363,754.49776 161.09015,754.25013 160.5245,753.70922 C 159.27667,752.74612 159.06421,751.91784 159.81739,751.19015 C 160.83632,750.30627 161.03288,749.73174 161.45258,748.89205 z M 181.51673,756.22829 C 183.4543,757.36186 186.83809,753.66469 184.52194,751.80887 C 182.41346,750.90807 180.1068,755.0465 181.51673,756.22829 z M 165.4375,762.42468 C 165.06232,763.36253 166.46702,765.99866 163.5,768.36218 C 161.39112,769.81611 158.88754,769.3776 159.25628,768.14251 C 160.09131,765.52327 162.8425,764.2231 165.4375,762.42468 z" sodipodi:nodetypes="cccccccccccccccccccccccccccccccccccccccc"/>
    <path id="path3425" style="opacity:1;fill:#FF8C00;fill-opacity:1;fill-rule:evenodd;stroke:#000000;stroke-width:1;stroke-linecap:butt;stroke-linejoin:round;stroke-miterlimit:4;stroke-dasharray:none;stroke-dashoffset:0;stroke-opacity:1" d="M 110.09895,764.71357 C 106.92465,761.67257 102.57401,765.31267 101.43689,768.33748 C 100.93775,768.92584 106.39834,768.93047 108.05085,767.18844 C 109.31323,765.99188 109.3823,765.4523 110.09895,764.71357 z M 35.568782,747.78896 C 35.194113,747.2687 33.160802,748.89082 32.375,749.48718 C 26.683411,753.80661 19.610366,765.08969 20.640165,770.24974 C 21.965474,776.17514 29.711815,768.55806 30.925476,766.3117 C 32.937294,762.87566 33.464029,764.00458 32.734835,765.84073 C 31.51449,768.79737 28.051419,772.34556 25.109835,774.31799 C 21.810397,776.50951 16.437601,775.64435 15.920495,770.76491 C 16.304259,761.77349 23.523773,751.65712 31.978553,745.78268 C 39.211297,740.91953 41.681956,745.96867 40.573223,748.0604 C 40.573223,748.0604 37.69892,757.25879 34.75,753.73718 C 33.150104,751.70183 36.765629,748.82855 35.568782,747.78896 z M 64.375,757.11218 C 62.546147,755.45868 66.449967,751.83518 68.0625,752.86218 C 70.796854,754.64461 66.270619,758.61419 64.375,757.11218 z M 50.25,746.73718 C 55.929489,740.90865 54.144145,744.30179 54.5,745.23718 C 55.685732,747.33064 55.369515,748.74668 52.625,750.61218 C 48.605239,754.65165 47.149874,758.2955 44.5,762.48718 C 49.167698,757.80556 53.943846,759.09063 52.308058,763.27823 C 51.443628,765.44278 50.404925,767.57829 48.654568,769.28268 C 53.439845,768.85531 55.83337,763.67784 59.375,760.54968 C 62.017858,758.04417 64.520255,759.85219 63.25,761.48718 C 55.307451,768.6915 59.861331,771.14125 62.489277,769.22646 C 66.270875,764.02206 69.761936,759.0128 76.021447,759.39879 C 79.554022,760.04524 78.636313,763.12353 75.566942,764.95057 C 74.064973,765.62609 72.249093,762.90067 73.6875,761.86218 C 71.814573,763.15444 70.271345,764.79082 69.186199,766.36976 C 65.928261,770.64914 67.001712,771.27147 71.375,770.23718 C 72.482779,769.86525 76.836796,768.67296 78.181981,767.0604 C 81.171444,763.27158 83.273649,761.93894 86.75,760.36218 C 96.708084,757.53093 95.693745,764.0771 91.975951,767.74606 C 89.464396,770.28892 96.781161,769.36545 97.9375,767.29968 C 99.32999,764.61269 102.14949,761.88634 105.42678,760.37735 C 110.34965,758.82036 112.58576,758.34243 113.59003,761.16524 C 116.78237,762.06966 114.37811,764.91261 113.21966,767.04784 C 112.47182,768.71855 116.75913,767.9352 118.125,765.48718 C 121.16536,761.28512 125.21243,757.4113 129.25,759.98718 C 132.12943,761.12103 132.65094,760.45587 134.63756,759.80413 C 133.80388,762.63688 132.56251,763.12778 129.84467,762.89879 C 130.43093,765.50405 129.41152,768.51456 125.5,771.11218 C 124.19134,771.53333 121.14637,774.0348 118.125,770.73718 C 117.49271,770.28249 117.08203,769.717 115.5,769.73718 C 113.8836,769.60119 112.56907,770.54599 111.00628,771.73718 C 107.04413,775.18832 106.29752,778.66163 102.73483,780.64879 C 98.648248,782.96922 95.204928,781.17987 99.243718,778.48718 C 101.2151,776.83596 103.60944,775.15519 105.59727,772.9354 C 107.06834,771.10016 106.31507,770.80075 105.89277,771.19612 C 104.26777,772.09591 100,774.06077 97.75,771.73718 C 96.805133,770.64965 94.902728,770.59861 93.25,771.67468 C 92.229167,772.35458 89.333333,773.21671 87.375,771.73718 C 86.083902,771.04338 83.264155,771.33554 82.5,772.36218 C 81.043891,773.50601 77.043237,773.2226 76.9375,770.4328 C 75.966751,770.19831 72.698964,771.7739 71,772.73718 C 69.016885,773.59648 65.11514,774.28406 62.25,772.36218 C 60.462906,771.63047 58.957805,772.02673 57.5,772.61218 C 55.666156,773.21813 53.810357,773.90093 52.625,772.23718 C 51.967315,771.653 53.780772,770.02342 54.639909,768.98701 C 52.323972,771.46238 48.601367,771.08345 47.9375,772.54968 C 46.015786,773.97486 42.380055,771.93698 43.75,769.54968 C 44.154348,768.63556 45.549549,766.65973 46.56699,765.08235 C 45.50694,765.5619 39.649239,769.0028 39.125,770.54968 C 38.076878,774.93489 35.605384,772.86437 37.103553,769.48718 C 35.942742,770.40643 35.298194,770.7351 33.875,771.73718 C 32.562309,773.10949 30.832525,771.8623 33.375,769.73718 C 34.411825,768.82172 36.740761,767.14129 38.414214,766.06668 C 42.013839,758.67748 44.66381,752.47091 50.25,746.73718 z M 122.03137,765.77423 C 120.66308,767.09966 120.33473,770.27979 123.62237,769.39815 C 125.38136,768.64215 127.53162,766.82634 127.77662,765.68584 C 126.12257,765.38912 126.18253,763.16586 127.51145,762.50385 C 125.70947,763.0589 123.37241,764.40469 122.03137,765.77423 z M 80.754018,769.39815 C 83.308933,769.67627 84.442387,768.75529 86.057318,767.63038 C 87.079832,766.29925 88.368575,764.89174 90.299959,764.00646 C 87.015429,762.76994 80.470669,767.77207 80.754018,769.39815 z" sodipodi:nodetypes="cccccsccccccccccccccccccccccccccccccccccccccccccccccccccccccccccccccccccccccccc"/>
  </g>
</svg>