<?xml version="1.0" standalone="no"?>
<!DOCTYPE svg PUBLIC "-//W3C//DTD SVG 20010904//EN"
 "http://www.w3.org/TR/2001/REC-SVG-20010904/DTD/svg10.dtd">
<svg version="1" xmlns="http://www.w3.org/2000/svg"
 width="3333pt" height="734pt" viewBox="0 0 3333 734"
 preserveAspectRatio="xMidYMid meet">

<g transform="translate(0,734) scale(0.1,-0.1)"
fill="#FF8C00" stroke="none">
<path d="M 11670 7305 c -360 -112 -677 -281 -1029 -548 c -694 -526 -1370 -1362 -1781 -2202 c -168 -344 -259 -606 -296 -856 c -23 -157 -15 -460 14 -569 c 52 -190 116 -308 234 -428 c 120 -122 280 -210 434 -237 c 247 -44 555 -25 799 49 c 27 8 50 14 51 13 c 1 -1 -169 -447 -377 -992 c -243 -637 -382 -1014 -389 -1056 c -36 -210 104 -401 340 -464 c 73 -19 242 -19 307 0 c 67 20 141 71 175 120 c 27 40 1507 4091 1547 4234 c 52 189 36 310 -51 374 c -35 26 -122 34 -197 17 c -71 -15 -230 -89 -260 -121 c -13 -13 -122 -143 -244 -289 c -431 -517 -649 -698 -965 -803 c -141 -47 -240 -68 -327 -69 c -91 -1 -146 17 -190 60 c -55 55 -70 115 -70 272 l 0 135 l 74 135 c 253 462 605 988 906 1355 c 291 355 669 726 947 931 c 100 73 227 107 259 68 c 7 -9 15 -44 17 -78 c 4 -63 -32 -222 -95 -416 c -23 -74 -27 -102 -27 -215 c -1 -125 0 -132 28 -183 c 61 -109 166 -151 329 -131 c 203 25 407 147 518 310 c 100 148 192 557 193 864 c 0 176 -11 240 -64 350 c -102 213 -370 391 -605 401 c -81 4 -101 1 -205 -31 z"/>
<path d="M 24550 7219 c -127 -18 -164 -40 -311 -188 c -294 -294 -694 -851 -1118 -1558 c -210 -351 -315 -541 -458 -833 c -68 -140 -154 -315 -190 -389 c -173 -351 -400 -676 -652 -935 c -202 -206 -385 -350 -581 -455 c -136 -72 -325 -123 -345 -92 c -8 15 27 48 221 209 c 752 624 1044 1000 1048 1352 c 1 77 -2 92 -32 152 c -58 118 -190 213 -380 272 c -172 54 -383 72 -471 41 c -203 -71 -514 -449 -866 -1050 c -102 -174 -244 -445 -275 -525 c -27 -68 -42 -85 -105 -118 c -44 -23 -62 -27 -145 -27 c -111 0 -157 17 -191 72 c -28 46 -22 104 21 186 c 50 96 375 634 532 880 c 78 122 141 227 140 232 c -2 27 -52 148 -68 167 c -30 34 -78 48 -160 48 c -116 0 -196 -17 -232 -48 c -16 -15 -114 -124 -218 -242 c -517 -592 -928 -926 -1270 -1033 c -124 -39 -193 -44 -246 -18 c -69 33 -93 84 -93 196 c 1 114 36 223 104 327 c 63 95 78 108 321 280 c 1018 721 1622 1388 1795 1983 c 57 198 70 450 31 629 c -57 258 -221 369 -501 337 c -144 -16 -269 -44 -355 -78 c -327 -131 -680 -483 -1061 -1058 c -217 -327 -424 -694 -784 -1391 c -242 -468 -295 -564 -358 -659 c -118 -175 -364 -433 -509 -533 c -194 -133 -348 -159 -387 -64 c -11 26 -4 48 73 243 c 46 118 138 360 205 539 c 177 481 296 788 364 940 l 24 56 l 169 22 c 300 39 274 38 274 11 c 0 -20 2 -21 14 -9 c 18 21 469 781 464 785 c -1 2 -109 -1 -238 -5 c -129 -5 -236 -7 -238 -6 c -1 2 43 128 98 281 c 55 153 99 279 97 281 c -2 2 -203 11 -446 20 c -361 14 -445 14 -451 4 c -5 -7 -52 -135 -106 -283 l -98 -270 l -308 5 c -170 3 -311 8 -314 11 c -4 3 44 137 106 297 c 85 220 110 294 101 300 c -38 23 -607 56 -735 42 l -70 -7 l -145 -325 c -79 -179 -145 -326 -145 -327 c -1 -1 -390 -15 -865 -32 c -475 -17 -865 -32 -867 -34 c -3 -2 -5 -89 -5 -193 c -1 -134 4 -210 15 -262 c 19 -91 63 -192 85 -193 c 9 0 289 -8 622 -17 l 607 -17 l -170 -380 c -93 -209 -171 -381 -173 -384 c -3 -2 -123 -32 -268 -66 l -263 -61 l -35 50 c -116 168 -284 290 -466 336 c -136 35 -339 25 -488 -25 c -168 -56 -293 -145 -538 -384 c -377 -368 -575 -688 -633 -1021 c -19 -110 -15 -260 10 -355 c 23 -86 87 -210 145 -281 c 256 -315 817 -397 1233 -182 c 187 97 301 229 574 671 c 167 270 284 392 429 449 l 40 16 l 0 -372 c 0 -433 6 -477 78 -587 c 129 -196 329 -208 662 -42 c 50 25 173 93 275 151 c 288 164 504 262 549 247 c 31 -9 49 -62 66 -191 c 8 -67 22 -144 30 -172 c 45 -152 196 -234 399 -218 c 206 16 440 110 886 355 l 165 91 l 7 -58 c 25 -214 163 -366 403 -442 c 98 -32 323 -39 449 -16 c 309 59 593 228 768 457 l 53 69 l 7 -56 c 37 -281 178 -462 396 -504 c 81 -16 223 -8 323 19 c 143 38 316 124 438 217 l 45 35 l 19 -48 c 63 -160 192 -277 362 -329 c 80 -25 297 -25 405 0 c 304 68 622 238 828 442 l 103 101 l 93 23 c 50 12 103 20 116 18 c 24 -3 25 -6 31 -118 c 4 -63 11 -129 16 -145 c 52 -157 177 -266 361 -312 c 106 -27 356 -24 495 5 c 219 47 449 142 609 254 c 97 67 288 239 424 381 c 361 377 567 681 646 957 c 16 56 34 66 259 150 l 166 62 l 12 251 c 6 139 14 275 17 304 l 6 51 l -38 11 c -100 28 -504 -6 -894 -75 c -158 -27 -233 -48 -255 -71 c -59 -58 -119 -209 -137 -343 c -21 -157 10 -279 93 -365 l 38 -40 l -178 -223 c -188 -235 -313 -379 -366 -424 c -41 -34 -276 -108 -367 -115 c -66 -6 -68 -5 -78 21 c -16 42 0 90 134 424 c 422 1049 753 1725 1159 2372 c 238 380 548 804 804 1098 c 101 116 119 169 85 246 c -51 113 -277 179 -502 145 z m -4720 -866 c 0 -5 -11 -50 -25 -100 c -143 -536 -473 -937 -930 -1133 c -49 -22 -91 -37 -94 -35 c -7 8 198 410 280 546 c 200 337 412 555 665 685 c 85 44 104 51 104 37 z m -3945 -1143 c 154 -5 312 -13 352 -16 l 72 -6 l -33 -66 c -19 -37 -91 -193 -161 -347 c -326 -719 -484 -993 -700 -1210 c -115 -116 -178 -154 -266 -162 c -81 -8 -136 14 -194 79 c -46 51 -75 122 -75 182 c 0 52 120 383 245 676 c 32 74 129 290 218 480 c 88 190 166 359 173 377 c 12 28 17 31 51 27 c 21 -2 164 -8 318 -14 z m 5661 -951 c 90 -43 154 -151 154 -259 l 0 -65 l -83 -80 c -101 -98 -245 -196 -397 -269 c -124 -60 -146 -66 -135 -38 c 4 9 38 109 76 222 c 78 226 124 323 203 420 c 76 94 107 106 182 69 z m -8811 -520 c 64 -110 205 -204 320 -216 l 55 -6 l -6 -36 c -46 -258 -155 -461 -280 -521 c -136 -66 -387 43 -422 182 c -17 67 -15 205 4 269 c 35 118 117 238 220 323 c 38 31 70 56 73 56 c 4 0 20 -23 36 -51 z"/>
<path d="M 4655 7173 c -1099 -28 -2187 -167 -3153 -403 c -459 -112 -1011 -279 -1101 -333 c -67 -40 -184 -154 -244 -239 c -57 -79 -121 -213 -142 -293 c -17 -68 -20 -173 -5 -227 c 26 -93 117 -181 227 -220 c 131 -46 204 -34 423 67 c 160 74 409 163 735 264 c 811 249 1528 391 2335 463 c 226 20 944 17 1138 -5 c 382 -43 582 -93 797 -197 c 190 -92 322 -183 463 -323 c 147 -145 237 -287 284 -452 c 30 -107 30 -284 0 -395 c -56 -209 -206 -534 -338 -730 c -211 -316 -467 -576 -774 -782 c -151 -102 -374 -216 -523 -267 c -89 -30 -106 -33 -186 -29 c -75 3 -95 8 -128 30 c -22 14 -48 43 -58 64 c -23 48 -31 155 -17 220 c 7 34 193 386 573 1089 c 309 572 579 1076 601 1120 c 36 74 39 85 36 150 c -4 80 -19 108 -83 150 c -83 54 -207 75 -452 75 l -172 0 l -129 -192 c -650 -972 -1223 -2188 -1337 -2835 c -8 -48 -15 -132 -15 -185 c 0 -81 4 -106 24 -150 c 92 -208 311 -347 629 -402 c 202 -35 461 -30 631 14 c 111 28 387 140 591 240 c 582 284 1042 658 1423 1157 c 169 223 265 390 356 625 c 152 387 240 921 215 1300 c -9 142 -31 223 -104 373 c -310 641 -959 1100 -1735 1225 c -226 36 -396 43 -785 33 z"/>
<path d="M 31450 6945 c -306 -78 -416 -121 -600 -233 c -769 -468 -1288 -952 -1702 -1587 c -225 -345 -440 -758 -716 -1376 c -91 -203 -103 -239 -126 -357 c -31 -156 -35 -338 -11 -440 c 20 -85 74 -199 132 -280 c 58 -82 221 -244 267 -266 c 51 -24 180 -21 306 8 c 206 48 503 159 860 323 c 113 52 212 97 220 99 c 10 3 27 -13 47 -45 c 56 -87 179 -224 262 -294 c 139 -118 272 -188 441 -233 c 89 -24 318 -24 414 -1 c 457 113 815 536 912 1077 c 8 47 18 153 21 236 l 6 150 l 243 159 c 210 137 243 162 248 188 c 10 50 6 149 -8 217 c -20 91 -107 330 -121 330 c -46 0 -323 -140 -415 -210 l -65 -48 l -30 19 c -131 85 -255 133 -388 150 c -257 32 -561 -82 -866 -325 c -132 -105 -297 -264 -498 -477 c -309 -329 -321 -339 -453 -407 c -207 -105 -393 -162 -483 -148 c -109 18 -159 83 -165 216 c -7 153 13 223 137 474 c 236 476 494 878 802 1246 c 210 252 559 591 865 840 c 234 192 265 215 255 188 c -14 -36 -184 -395 -241 -507 c -27 -55 -50 -110 -50 -121 c 0 -20 5 -20 389 -20 l 389 0 l 80 123 c 216 332 348 613 383 812 c 18 106 8 228 -25 302 c -57 125 -200 220 -396 264 c -25 5 -52 11 -60 13 c -8 2 -125 -24 -260 -59 z m -234 -3355 c 31 -68 74 -114 138 -147 c 57 -29 160 -53 233 -53 l 53 0 l -18 -48 c -10 -26 -38 -77 -62 -113 c -57 -85 -259 -286 -339 -338 c -60 -39 -68 -41 -138 -41 c -124 0 -181 41 -203 146 c -34 164 111 562 264 722 l 31 33 l 8 -52 c 4 -29 19 -78 33 -109 z"/>
<path d="M 27772 6919 c -68 -16 -334 -156 -482 -253 c -637 -418 -1277 -1052 -1409 -1396 c -42 -109 -65 -261 -58 -379 c 12 -175 60 -293 155 -382 c 32 -30 67 -59 77 -65 c 24 -14 30 -6 -123 -181 c -383 -438 -601 -824 -728 -1292 c -20 -74 -25 -109 -20 -152 c 20 -200 216 -424 456 -522 c 96 -40 173 -57 285 -63 c 149 -10 213 4 435 95 c 712 288 1053 484 1358 776 l 109 105 l -4 72 c -21 338 -132 574 -292 622 c -52 16 -30 29 -181 -108 c -178 -162 -486 -371 -730 -496 c -191 -97 -437 -190 -502 -190 c -28 0 -22 47 16 125 c 128 266 609 721 1118 1060 c 136 90 136 90 145 245 c 3 64 0 127 -11 192 c -18 110 -62 258 -77 258 c -5 0 -76 -12 -157 -26 c -147 -25 -360 -35 -411 -19 c -29 9 -25 29 39 160 c 143 295 375 541 688 728 l 94 55 l 82 -39 c 301 -144 561 -53 801 280 l 39 54 l 4 116 c 7 203 -30 304 -157 432 c -117 117 -270 184 -441 194 c -41 2 -94 0 -118 -6 z"/>
<path d="M 20670 5764 c -54 -11 -128 -38 -195 -72 c -88 -46 -243 -198 -298 -292 c -131 -227 -102 -463 68 -553 c 56 -29 200 -36 281 -12 c 234 67 455 298 504 526 c 18 80 9 203 -18 255 c -28 55 -100 117 -154 133 c -47 15 -148 22 -188 15 z"/>
<path d="M 32951 3419 c -120 -21 -262 -100 -366 -204 c -159 -159 -230 -368 -178 -520 c 23 -69 95 -139 164 -159 c 217 -65 507 69 667 309 c 69 102 92 176 92 292 c 0 107 -11 142 -64 201 c -64 70 -190 103 -315 81 z"/>
<path d="M 7196 3345 c -144 -40 -288 -157 -358 -291 c -147 -280 -39 -601 230 -684 c 78 -24 203 -26 287 -5 c 228 60 408 279 422 516 c 17 282 -168 481 -446 478 c -47 0 -108 -7 -135 -14 z"/>
</g>
</svg>
