<?xml version="1.0" standalone="no"?>
<!DOCTYPE svg PUBLIC "-//W3C//DTD SVG 20010904//EN"
 "http://www.w3.org/TR/2001/REC-SVG-20010904/DTD/svg10.dtd">
<svg version="1.0" xmlns="http://www.w3.org/2000/svg"
 width="289.000000pt" height="190.000000pt" viewBox="0 0 289.000000 190.000000"
 preserveAspectRatio="xMidYMid meet">

<g transform="translate(0.000000,190.000000) scale(0.100000,-0.100000)"
fill="#FF8C00" stroke="none">
<path d="M2725 1858 c-33 -19 -44 -41 -45 -84 0 -53 32 -84 92 -91 95 -11 146
91 79 158 -32 32 -87 39 -126 17z m90 -8 c4 -6 -12 -10 -40 -10 -28 0 -44 4
-40 10 3 6 21 10 40 10 19 0 37 -4 40 -10z m-75 -130 c15 0 20 7 20 25 0 14 4
25 8 25 8 0 52 -54 52 -65 0 -11 -77 -4 -97 10 -28 20 -37 61 -21 99 13 31 13
30 16 -31 3 -55 6 -63 22 -63z m120 60 c0 -33 -9 -43 -27 -29 -10 9 -10 15 -2
25 6 8 9 26 6 41 -5 26 -4 26 9 8 8 -10 14 -31 14 -45z m-67 23 c-7 -2 -19 -2
-25 0 -7 3 -2 5 12 5 14 0 19 -2 13 -5z"/>
<path d="M410 1680 l0 -79 -46 24 c-53 28 -91 31 -157 11 -26 -8 -47 -10 -47
-5 0 5 -25 9 -55 9 l-55 0 -1 -57 c0 -32 -1 -74 -1 -93 0 -19 0 -70 1 -112 l1
-78 55 0 55 0 0 65 c0 36 2 65 4 65 2 0 20 -7 39 -15 64 -27 150 -13 199 32
17 15 18 14 18 -10 0 -26 2 -27 60 -27 45 0 60 4 60 14 0 11 8 10 38 -6 30
-16 48 -18 97 -13 33 4 93 6 133 5 l74 -2 -4 96 c-4 124 -15 137 -120 145 -81
7 -189 -5 -200 -22 -12 -20 2 -37 23 -26 28 14 120 15 147 0 32 -17 25 -21
-26 -11 -53 9 -106 -2 -144 -30 l-28 -21 0 111 0 110 -60 0 -60 0 0 -80z
m-119 -100 c30 -16 26 -75 -6 -96 -25 -17 -89 -15 -106 3 -35 39 0 103 57 103
20 0 44 -5 55 -10z m450 -40 c29 -16 26 -67 -5 -81 -56 -26 -116 31 -76 71 22
22 51 25 81 10z"/>
<path d="M2107 1733 c-4 -3 -7 -21 -7 -40 0 -29 -4 -34 -30 -39 -16 -4 -30
-13 -30 -21 0 -11 -6 -10 -32 4 -25 13 -56 18 -123 18 -112 0 -145 -8 -145
-36 0 -16 4 -19 18 -14 31 14 116 17 145 6 39 -15 34 -30 -7 -21 -50 11 -135
-5 -162 -31 l-24 -22 0 40 c0 27 -6 46 -20 58 -28 26 -100 31 -143 10 -33 -15
-37 -15 -61 1 -21 13 -37 15 -74 9 -26 -4 -106 -6 -179 -5 -143 2 -129 6 -181
-59 l-19 -24 -22 39 -22 39 -59 -3 c-33 -2 -60 -6 -60 -9 0 -3 21 -45 46 -94
l46 -90 -36 -58 c-20 -33 -36 -62 -36 -65 0 -3 29 -6 64 -6 l64 0 93 150 c52
83 97 150 101 150 5 0 8 -45 8 -99 0 -57 4 -101 10 -103 5 -1 32 -1 59 0 l49
4 1 80 c1 44 4 84 7 89 8 14 54 11 59 -3 3 -7 6 -47 7 -88 l3 -75 55 0 55 0 1
72 c2 89 7 103 38 103 31 0 36 -15 36 -106 l0 -74 55 0 c47 0 55 3 55 19 0 17
3 17 47 -5 54 -28 73 -29 136 -10 27 8 49 10 53 5 6 -10 48 -12 82 -3 21 6 22
12 22 90 0 82 1 84 24 84 22 0 24 -5 31 -70 6 -59 11 -73 32 -90 30 -23 77
-26 115 -6 20 11 29 11 37 3 5 -7 30 -11 60 -9 46 4 51 6 51 28 l0 24 38 -24
c59 -40 193 -40 245 -1 15 11 16 17 8 33 -11 20 -11 20 -48 1 -20 -10 -50 -19
-66 -19 -33 0 -77 40 -77 70 0 11 11 32 25 45 26 27 65 32 112 14 22 -8 30 -7
40 7 17 24 12 29 -54 49 -49 16 -65 17 -113 7 -30 -7 -67 -21 -82 -32 l-26
-19 -6 25 c-5 20 -12 25 -26 21 -11 -3 -23 -1 -26 4 -3 5 9 9 25 9 24 0 31 4
31 19 0 43 -10 51 -67 51 l-55 0 3 -42 c3 -42 3 -43 -26 -39 -32 3 -46 16 -44
41 3 36 -2 40 -49 40 -27 0 -52 -3 -55 -7z m174 -160 c1 -16 2 -37 3 -48 1
-24 -29 -49 -49 -41 -11 4 -15 22 -15 61 0 54 0 55 30 55 26 0 30 -4 31 -27z
m-353 -35 c16 -16 15 -53 -2 -67 -8 -7 -32 -11 -53 -9 -31 2 -39 8 -48 31 -8
24 -6 31 10 43 23 17 77 18 93 2z"/>
<path d="M1463 1260 c-100 -23 -162 -94 -242 -275 -24 -55 -54 -117 -67 -137
-77 -122 -255 -225 -423 -244 -34 -3 -61 -11 -61 -16 0 -6 20 -8 48 -4 26 3
115 11 197 17 244 18 256 7 274 -249 15 -205 29 -253 84 -293 52 -38 66 -37
25 2 -23 21 -27 28 -13 23 37 -14 114 -16 150 -4 20 7 53 26 73 44 l36 31 -23
-33 c-34 -49 -85 -83 -138 -92 l-48 -8 60 -1 c94 -2 116 22 220 234 71 143 96
184 143 232 98 101 202 157 342 183 76 15 117 34 55 26 -22 -3 -117 -8 -211
-12 -235 -10 -247 -2 -265 171 -26 254 -32 293 -48 331 -25 57 -100 90 -168
74z m96 -41 c40 -24 36 -33 -8 -18 -44 15 -103 6 -165 -26 l-51 -26 35 36 c19
20 44 41 55 45 37 16 99 11 134 -11z m-6 -38 c26 -10 67 -49 67 -63 0 -5 -19
1 -42 13 -73 37 -165 11 -277 -80 -60 -48 -54 -35 18 43 73 77 167 112 234 87z
m11 -65 c31 -13 66 -49 66 -69 0 -4 -13 2 -29 14 -16 12 -50 24 -75 26 -73 9
-127 -18 -223 -110 -46 -44 -83 -76 -83 -72 0 15 73 106 114 142 87 76 160 98
230 69z m10 -61 c27 -13 66 -60 66 -80 0 -3 -16 6 -35 21 -71 54 -172 32 -285
-61 -132 -110 -154 -116 -47 -13 60 56 127 113 149 126 48 26 106 29 152 7z
m14 -72 c23 -14 65 -73 57 -81 -2 -2 -17 6 -34 19 -21 16 -49 24 -88 27 -52 4
-66 0 -135 -36 -43 -22 -94 -53 -115 -70 -48 -37 -163 -110 -143 -89 41 41
228 191 267 214 74 43 139 49 191 16z m-8 -68 c27 -14 70 -60 70 -75 0 -4 -21
3 -47 16 -89 46 -147 32 -340 -82 -94 -55 -231 -119 -239 -111 -2 2 28 21 68
42 40 21 120 70 178 108 162 109 244 136 310 102z m3 -69 c34 -14 84 -62 75
-72 -4 -3 -21 2 -39 11 -24 13 -50 16 -103 13 -58 -3 -101 -16 -231 -67 -186
-74 -204 -80 -150 -51 22 12 94 52 160 88 160 88 224 106 288 78z m30 -80 c18
-7 43 -26 57 -41 l25 -27 -42 21 c-75 37 -159 30 -363 -34 -114 -35 -168 -49
-160 -42 4 4 271 112 320 130 30 11 132 7 163 -7z m32 -66 l40 -19 -50 7 c-67
9 -174 6 -242 -8 -83 -18 -74 -5 14 18 103 26 186 27 238 2z m-145 -41 c-52
-10 -115 -18 -140 -17 l-45 0 40 10 c62 14 146 26 195 26 35 0 23 -4 -50 -19z
m-46 -29 c-12 -5 -50 -14 -84 -21 -50 -10 -72 -9 -118 2 l-57 14 115 6 c63 3
126 6 140 6 24 2 24 1 4 -7z m321 -13 c-27 -12 -90 -43 -140 -70 -151 -81
-248 -126 -280 -130 -37 -5 -94 10 -117 31 -12 9 -18 11 -18 3 0 -23 64 -51
118 -51 48 0 73 10 247 100 107 55 197 100 201 100 5 0 -30 -24 -77 -53 -46
-29 -113 -75 -149 -101 -128 -95 -218 -119 -290 -75 -44 27 -59 48 -59 79 0
14 -3 36 -7 50 -7 24 -6 24 12 8 58 -49 158 -44 292 16 131 58 205 88 252 102
66 18 72 15 15 -9z m-180 -32 c-115 -56 -211 -87 -273 -88 -54 -1 -117 26
-139 60 l-14 21 48 -15 c85 -27 173 -20 313 25 69 22 132 40 140 40 8 0 -25
-19 -75 -43z m-100 14 c-83 -32 -171 -44 -237 -30 -31 7 -62 18 -68 26 -10 12
-6 13 22 5 47 -14 172 -12 243 4 85 20 98 18 40 -5z m235 -70 c-202 -176 -295
-243 -357 -255 -38 -8 -103 10 -131 36 -12 12 -22 17 -22 11 0 -14 59 -60 86
-67 70 -18 163 24 279 126 39 34 88 76 110 93 l40 32 -33 -42 c-56 -72 -211
-211 -265 -237 -61 -31 -97 -32 -154 -7 -45 21 -78 70 -70 103 3 10 2 32 -3
48 l-9 30 40 -32 c32 -25 51 -33 97 -36 76 -5 106 8 250 111 129 92 165 116
172 116 3 0 -11 -14 -30 -30z m-116 -209 c-99 -138 -224 -203 -322 -169 -28
10 -81 73 -70 84 2 3 21 -8 42 -23 81 -57 178 -29 311 93 39 35 71 64 72 65 2
0 -13 -22 -33 -50z m-30 -82 c-4 -7 -22 -31 -39 -53 -87 -109 -261 -132 -303
-40 l-11 24 36 -22 c45 -26 125 -27 178 -1 20 9 60 37 88 60 56 47 62 51 51
32z"/>
</g>
</svg>
