<?xml version="1.0" standalone="no"?>
<!DOCTYPE svg PUBLIC "-//W3C//DTD SVG 20010904//EN"
 "http://www.w3.org/TR/2001/REC-SVG-20010904/DTD/svg10.dtd">
<svg version="1" xmlns="http://www.w3.org/2000/svg"
 width="3840pt" height="1678pt" viewBox="0 0 3840 1678"
 preserveAspectRatio="xMidYMid meet">

<g transform="translate(0,1678) scale(0.1,-0.1)"
fill="#FF8C00" stroke="none">
<path d="M 31485 15873 c -241 -32 -380 -62 -554 -119 c -579 -193 -1049 -583 -1320 -1096 c -71 -134 -97 -200 -184 -458 c -36 -107 -129 -382 -207 -610 c -77 -228 -161 -473 -185 -545 c -24 -71 -98 -290 -165 -485 c -66 -195 -141 -413 -165 -485 c -24 -71 -101 -296 -170 -500 c -69 -203 -146 -428 -170 -500 c -24 -71 -107 -317 -185 -545 c -78 -228 -154 -453 -170 -500 c -16 -47 -83 -245 -150 -440 c -66 -195 -147 -434 -180 -530 c -32 -96 -113 -335 -180 -530 c -67 -195 -141 -413 -165 -485 c -24 -71 -101 -296 -170 -500 c -69 -203 -146 -428 -170 -500 c -24 -71 -107 -317 -185 -545 c -78 -228 -154 -451 -168 -495 l -27 -80 l -3 3028 l -2 3027 l -2130 0 l -2130 0 l 0 -745 l 0 -745 l 1380 0 l 1380 0 l 0 -2050 l 0 -2050 l -1802 3 c -1635 2 -1811 4 -1891 19 c -335 64 -580 192 -818 428 c -185 184 -297 363 -372 595 c -79 243 -72 -30 -72 2870 l 0 2590 l 24 105 c 59 260 160 465 330 674 c 71 87 131 143 236 222 c 205 153 365 226 631 286 l 99 23 l 2568 3 l 2567 3 l 0 749 l 0 750 l -2612 -3 c -2806 -3 -2665 -1 -2918 -51 c -548 -109 -1014 -337 -1430 -703 c -392 -344 -685 -786 -857 -1288 c -62 -183 -100 -345 -135 -579 l -23 -151 l 0 -2635 l 0 -2635 l 23 -155 c 74 -495 238 -919 500 -1300 c 235 -340 552 -643 903 -863 c 427 -266 908 -417 1434 -447 c 133 -8 1116 -10 3274 -8 l 3084 3 l 78 230 c 43 127 119 349 168 495 c 50 146 154 452 231 680 c 78 228 167 494 200 590 c 32 96 116 342 185 545 c 69 204 152 449 185 545 c 32 96 122 362 200 590 c 77 228 161 474 185 545 c 24 72 107 317 185 545 c 77 228 161 474 185 545 c 24 72 114 337 200 590 c 86 253 176 519 200 590 c 24 72 105 310 180 530 c 75 220 156 459 180 530 c 24 72 107 317 185 545 c 77 228 185 546 239 705 c 54 160 105 308 113 331 c 69 196 255 381 470 468 c 188 75 416 78 608 6 c 149 -55 316 -190 402 -325 c 56 -87 66 -110 118 -265 c 24 -69 105 -309 182 -535 c 76 -225 174 -516 218 -645 c 81 -242 235 -697 480 -1420 c 78 -228 167 -494 200 -590 c 33 -96 138 -409 235 -695 c 97 -286 203 -599 235 -695 c 33 -96 122 -362 200 -590 c 77 -228 174 -514 215 -635 c 41 -121 144 -427 230 -680 c 232 -684 345 -1021 345 -1029 c 0 -3 -900 -6 -2000 -6 l -2000 0 l 0 -750 l 0 -750 l 3040 0 c 2186 0 3040 3 3040 11 c 0 11 -50 159 -400 1199 c -105 311 -233 691 -285 845 c -52 154 -187 555 -300 890 c -113 336 -248 736 -300 890 c -52 154 -193 575 -315 935 c -122 360 -272 808 -335 995 c -63 187 -200 594 -305 905 c -105 311 -233 691 -285 845 c -52 154 -187 555 -300 890 c -113 336 -241 716 -285 846 c -43 130 -90 268 -105 305 c -252 647 -826 1147 -1545 1348 c -215 60 -434 86 -693 85 c -111 -1 -215 -4 -232 -6 z"/>
<path d="M 4205 15704 c -16 -2 -79 -9 -140 -15 c -270 -26 -566 -93 -820 -185 c -55 -20 -118 -43 -140 -51 c -78 -28 -348 -163 -468 -234 c -265 -157 -465 -311 -685 -526 c -231 -227 -404 -450 -592 -763 c -60 -100 -197 -393 -244 -520 c -103 -282 -162 -525 -203 -840 c -24 -188 -24 -641 1 -825 c 55 -414 153 -753 319 -1106 c 288 -613 789 -1166 1372 -1516 c 175 -105 419 -225 570 -279 c 311 -112 510 -161 835 -206 c 144 -19 210 -21 930 -25 c 862 -4 823 -1 877 -72 c 24 -31 28 -45 28 -106 c 0 -76 -13 -102 -72 -148 l -28 -22 l -2427 -3 l -2428 -2 l 0 -750 l 0 -750 l 2448 0 c 2096 0 2464 2 2562 15 c 734 94 1308 642 1441 1375 c 29 157 24 472 -10 628 c -64 302 -212 585 -417 801 c -205 216 -423 357 -689 446 c -237 79 -405 94 -1060 95 c -815 2 -1030 15 -1265 79 c -246 66 -542 217 -735 374 c -87 71 -245 229 -311 312 c -448 555 -573 1306 -329 1979 c 142 395 429 759 780 991 c 270 179 525 277 846 325 c 131 19 187 20 2602 20 l 2467 0 l 0 755 l 0 755 l -2492 -1 c -1371 -1 -2506 -4 -2523 -5 z"/>
<path d="M 12760 15704 c -229 -22 -347 -39 -500 -75 c -98 -24 -269 -73 -320 -94 c -19 -7 -66 -26 -105 -40 c -375 -144 -797 -432 -1079 -737 c -437 -475 -684 -994 -788 -1658 l -23 -145 l 0 -2655 l 0 -2655 l 23 -145 c 35 -221 62 -338 119 -515 c 251 -779 794 -1412 1521 -1774 c 368 -183 741 -283 1157 -311 c 104 -6 1048 -10 2722 -10 l 2563 0 l 0 750 l 0 750 l -2647 2 l -2648 3 l -95 22 c -280 65 -497 170 -693 338 c -264 225 -447 547 -507 891 c -20 115 -20 153 -20 2659 c 0 2456 1 2546 19 2651 c 96 546 493 1002 1023 1174 c 49 16 135 39 191 52 l 102 22 l 2648 -3 l 2647 -3 l 0 756 l 0 756 l -2637 -2 c -1451 0 -2654 -3 -2673 -4 z"/>
<path d="M 31622 14185 c -125 -27 -262 -133 -319 -246 c -20 -38 -89 -238 -413 -1199 c -32 -96 -122 -362 -200 -590 c -78 -228 -168 -494 -200 -590 c -33 -96 -138 -409 -235 -695 c -97 -286 -202 -599 -235 -695 c -32 -96 -122 -362 -200 -590 c -78 -228 -168 -494 -200 -590 c -33 -96 -136 -402 -230 -680 c -95 -278 -193 -570 -220 -650 c -26 -80 -119 -352 -205 -605 c -86 -253 -189 -559 -230 -680 c -41 -121 -131 -386 -200 -590 c -249 -737 -295 -873 -295 -884 c 0 -8 241 -11 883 -11 l 882 0 l 127 378 c 128 379 389 1152 575 1702 c 55 162 160 473 233 690 c 73 217 136 399 141 405 c 5 5 9 -272 9 -658 l 0 -667 l 1753 2 c 1161 2 1751 6 1750 13 c -1 6 -104 312 -228 680 c -259 769 -304 902 -605 1795 c -121 360 -263 781 -315 935 c -251 744 -486 1441 -585 1735 c -137 408 -538 1598 -615 1825 c -70 206 -89 246 -156 319 c -116 127 -290 179 -467 141 z m 121 -4212 c 3 -10 85 -252 181 -538 c 297 -875 343 -1014 338 -1020 c -9 -9 -1062 -5 -1062 4 c 0 11 36 120 240 721 c 94 278 197 583 228 677 c 31 95 60 173 63 173 c 4 0 9 -8 12 -17 z"/>
<path d="M 15410 13840 l -2655 -5 l -75 -22 c -125 -37 -133 -39 -204 -72 c -274 -124 -510 -385 -601 -666 c -63 -193 -59 -89 -62 -1392 l -4 -1193 l 2586 0 l 2585 0 l 0 745 l 0 745 l -1840 0 l -1840 0 l 6 43 c 17 123 89 233 188 285 l 51 27 l 2263 3 l 2262 2 l 0 755 c 0 415 -1 754 -2 753 c -2 -2 -1198 -5 -2658 -8 z"/>
<path d="M 22435 13840 c -854 -5 -978 -8 -1035 -23 c -223 -56 -398 -155 -557 -313 c -141 -140 -243 -320 -301 -533 l -27 -96 l 0 -2565 c 0 -2457 1 -2568 18 -2640 c 60 -244 154 -416 316 -581 c 169 -170 376 -278 615 -320 c 104 -18 178 -19 1697 -19 l 1589 0 l 0 1685 l 0 1685 l -1195 0 l -1195 0 l 0 -750 l 0 -750 l 445 0 l 445 0 l 0 -180 l 0 -181 l -487 3 l -488 3 l -59 29 c -74 36 -141 104 -175 176 l -26 55 l -6 515 c -4 283 -7 1069 -8 1745 c -1 1063 1 1239 14 1288 c 28 109 85 191 158 228 c 100 51 -23 49 2285 49 l 2152 0 l 0 750 l 0 750 l -1602 -2 c -882 -2 -2039 -5 -2573 -8 z"/>
<path d="M 4168 13820 c -312 -52 -591 -182 -823 -383 c -257 -222 -428 -494 -529 -842 c -36 -126 -50 -239 -50 -430 c 0 -215 13 -307 71 -495 c 185 -607 698 -1054 1328 -1160 c 94 -15 193 -19 675 -24 c 958 -11 1073 -16 1260 -56 c 182 -39 314 -83 465 -156 c 590 -284 1005 -822 1125 -1459 c 23 -121 43 -371 36 -434 c -3 -25 -8 -86 -11 -136 c -9 -138 -57 -359 -105 -485 c -12 -30 -25 -67 -30 -82 c -16 -51 -129 -267 -181 -345 c -331 -500 -804 -807 -1409 -915 c -47 -8 -744 -13 -2580 -17 l -2515 -6 l -3 -756 l -2 -757 l 2462 4 c 1571 3 2516 8 2608 15 c 220 16 423 49 615 101 c 61 17 124 34 140 38 c 124 33 333 114 511 200 c 730 352 1320 947 1669 1683 c 29 62 65 144 79 182 c 15 39 34 86 41 105 c 26 66 84 255 109 355 c 142 566 142 1174 0 1740 c -25 100 -83 289 -109 355 c -132 334 -215 497 -380 745 c -138 207 -248 339 -444 536 c -347 346 -677 570 -1125 764 c -121 52 -393 144 -501 170 c -157 37 -257 57 -390 77 c -132 21 -185 22 -972 27 l -831 6 l -39 31 c -52 43 -75 85 -76 143 c -1 64 36 128 95 161 l 43 25 l 2412 0 l 2413 0 l 0 748 l 0 747 l -2472 -1 c -2338 -1 -2479 -2 -2580 -19 z"/>
<path d="M 11812 8923 l 4 -1198 l 27 -96 c 64 -228 159 -391 318 -545 c 133 -128 264 -207 442 -265 c 181 -60 70 -57 2875 -58 l 2572 -1 l 0 750 l 0 750 l -2243 2 l -2242 3 l -67 33 c -113 55 -175 144 -193 275 l -6 47 l 1840 0 l 1841 0 l 0 750 l 0 750 l -2585 0 l -2586 0 l 3 -1197 z"/>
<path d="M 34170 3180 c -399 -32 -720 -132 -967 -302 c -84 -58 -228 -204 -278 -282 c -102 -160 -161 -326 -184 -521 c -6 -49 -11 -96 -11 -102 c 0 -10 -41 -13 -170 -13 l -170 0 l 0 580 l 0 580 l -625 0 l -625 0 l 0 -541 c 0 -428 -3 -540 -12 -537 c -7 2 -128 164 -268 360 c -140 196 -313 438 -385 537 l -129 181 l -671 -2 l -670 -3 l -3 -577 l -2 -578 l -225 0 l -225 0 l -2 578 l -3 577 l -667 3 l -668 2 l 0 -580 l 0 -580 l -2215 0 l -2215 0 l 0 580 l 0 580 l -670 0 l -670 0 l 0 -580 l 0 -580 l -745 0 l -745 0 l 0 580 l 0 580 l -667 -2 l -668 -3 l -3 -578 l -2 -577 l -368 2 l -367 3 l -191 575 l -191 575 l -1066 3 l -1066 2 l -166 -507 c -169 -515 -189 -576 -207 -625 l -10 -28 l -404 -2 c -222 -2 -404 -1 -404 2 c 0 3 16 16 36 29 c 95 65 177 174 219 291 c 17 45 20 80 20 200 c 0 124 -4 155 -24 218 c -69 216 -228 332 -541 394 c -103 21 -130 22 -1502 25 l -1398 4 l 0 -581 l 0 -580 l -205 0 l -205 0 l -2 578 l -3 577 l -627 3 l -628 2 l 0 -540 c 0 -318 -4 -540 -9 -540 c -5 0 -27 25 -48 55 c -85 121 -225 318 -470 660 l -258 360 l -673 3 l -672 2 l 0 -580 l 0 -580 l -188 2 l -187 3 l -3 578 l -2 577 l -668 -2 l -667 -3 l -3 -577 l -2 -578 l -164 0 l -164 0 l 9 38 c 14 60 10 281 -7 383 c -33 203 -105 350 -231 470 c -132 127 -279 195 -522 241 c -115 22 -127 22 -1408 25 l -1293 4 l 0 -581 l 0 -580 l -840 0 l -840 0 l 0 -175 l 0 -175 l 838 -2 l 837 -3 l 3 -538 l 2 -537 l 670 0 l 670 0 l 0 300 l 0 300 l 544 0 c 498 0 553 2 659 20 c 322 56 576 195 727 399 l 45 60 l 233 1 l 232 0 l 0 -540 l 0 -540 l 670 0 l 670 0 l 2 538 l 3 537 l 185 0 l 185 0 l 3 -537 l 2 -538 l 625 0 l 625 0 l 2 538 l 3 537 l 38 3 c 22 2 45 -3 54 -10 c 9 -7 185 -224 391 -483 c 206 -259 396 -496 421 -527 l 46 -58 l 593 0 l 592 0 l 0 540 l 0 540 l 205 0 l 205 0 l 0 -540 l 0 -540 l 1343 0 c 1262 0 1349 1 1467 19 c 157 23 222 42 335 96 c 226 107 347 301 348 555 c 1 158 -33 273 -110 367 l -34 43 l 265 0 c 146 0 266 -4 266 -8 c 0 -4 -58 -183 -129 -398 c -70 -214 -147 -445 -169 -514 c -22 -69 -43 -133 -47 -143 c -7 -16 29 -17 677 -17 l 684 0 l 23 73 c 13 39 30 95 39 122 c 8 28 21 69 29 93 l 15 42 l 449 0 c 247 0 449 -2 449 -4 c 0 -3 18 -75 40 -161 c 22 -86 40 -158 40 -161 c 0 -2 313 -4 696 -4 c 659 0 696 1 689 17 c -3 10 -78 236 -166 503 c -88 267 -167 502 -175 522 l -14 38 l 310 0 l 310 0 l 0 -540 l 0 -540 l 1255 0 l 1255 0 l 0 440 l 0 440 l -582 2 l -583 3 l -3 98 l -3 97 l 746 0 l 745 0 l 0 -540 l 0 -540 l 1250 0 l 1250 0 l 0 440 l 0 440 l -580 0 l -580 0 l 0 100 l 0 100 l 2215 0 l 2215 0 l 0 -540 l 0 -540 l 670 0 l 670 0 l 0 540 l 0 540 l 225 0 l 225 0 l 0 -540 l 0 -540 l 630 0 l 630 0 l 0 540 l 0 540 l 44 0 l 44 0 l 329 -412 c 181 -227 340 -427 353 -444 c 14 -17 60 -74 103 -128 l 77 -96 l 590 0 l 590 0 l 2 537 l 3 538 l 172 3 c 172 2 173 2 177 -20 c 38 -199 76 -328 123 -423 c 147 -292 394 -491 744 -598 c 273 -84 463 -107 878 -107 c 330 0 593 18 897 60 c 142 20 180 26 332 58 l 82 17 l 0 427 c 0 367 -2 428 -14 428 c -8 0 -61 -8 -118 -19 c -360 -66 -514 -82 -834 -88 c -237 -5 -294 -3 -365 11 c -100 20 -192 62 -235 108 c -36 38 -74 104 -74 130 c 0 17 101 18 2115 18 l 2115 0 l 0 175 l 0 175 l -2097 2 l -2098 3 l 42 42 c 79 79 186 116 383 133 c 298 26 892 -9 1108 -65 c 31 -8 62 -15 69 -15 c 10 0 13 99 13 505 c 0 278 -3 505 -7 505 c -4 0 -133 18 -287 39 c -155 22 -359 47 -455 55 c -200 19 -736 29 -891 16 z m -17721 -720 c 10 -30 26 -82 36 -115 c 9 -33 23 -78 30 -100 c 7 -22 23 -74 35 -115 c 12 -41 28 -95 36 -120 c 8 -25 39 -128 69 -230 c 31 -102 58 -193 61 -202 c 5 -17 -13 -18 -290 -18 c -163 0 -296 3 -296 8 c 0 4 18 62 39 129 c 21 67 49 157 61 200 c 12 43 44 157 72 253 c 97 338 108 372 120 368 c 5 -2 18 -28 27 -58 z m -3520 -20 c 128 -17 173 -59 179 -169 c 5 -80 -14 -129 -61 -163 c -56 -40 -123 -48 -434 -48 l -293 0 l 0 195 l 0 195 l 268 0 c 147 0 300 -5 341 -10 z m -9335 -85 c 87 -18 149 -55 183 -108 c 24 -37 27 -52 28 -132 c 0 -112 -6 -135 -52 -186 c -78 -87 -137 -99 -472 -99 l -258 0 l -6 98 c -9 127 -9 427 0 435 c 14 14 505 7 577 -8 z m 9437 -868 c 20 -10 49 -31 65 -48 c 26 -27 29 -38 32 -109 c 5 -94 -13 -132 -76 -168 c -62 -34 -156 -43 -452 -40 l -275 3 l -3 193 l -2 193 l 337 -3 c 301 -3 342 -5 374 -21 z"/>
<path d="M 36616 1194 c -92 -20 -153 -52 -204 -108 c -71 -77 -86 -122 -87 -256 c 0 -111 1 -118 33 -183 c 41 -82 104 -134 205 -167 c 60 -19 84 -21 205 -18 c 174 5 231 25 312 107 c 74 75 93 130 92 267 c 0 93 -3 108 -31 167 c -54 112 -144 172 -293 197 c -84 13 -148 11 -232 -6 z"/>
<path d="M 24636 1028 c -10 -51 -24 -120 -31 -153 c -8 -33 -21 -98 -30 -145 c -9 -47 -25 -125 -35 -175 c -10 -49 -21 -103 -24 -120 c -12 -65 -47 -231 -52 -247 c -5 -17 9 -18 200 -18 c 154 0 206 3 206 12 c 0 10 29 92 85 238 c 7 19 66 179 131 355 c 64 176 119 326 121 333 c 4 9 -55 12 -274 12 l -279 0 l -18 -92 z"/>
</g>
</svg>
