<?xml version="1.0" standalone="no"?>
<!DOCTYPE svg PUBLIC "-//W3C//DTD SVG 20010904//EN"
 "http://www.w3.org/TR/2001/REC-SVG-20010904/DTD/svg10.dtd">
<svg version="1.0" xmlns="http://www.w3.org/2000/svg"
 width="288.000000pt" height="77.000000pt" viewBox="0 0 288.000000 77.000000"
 preserveAspectRatio="xMidYMid meet">

<g transform="translate(0.000000,77.000000) scale(0.100000,-0.100000)"
fill="#FF8C00" stroke="none">
<path d="M2332 688 c-53 -26 -34 -110 27 -116 84 -8 98 99 16 121 -11 3 -30 1
-43 -5z"/>
<path d="M70 518 c0 -62 3 -170 7 -240 l6 -128 66 0 c97 1 181 46 181 99 0 7
-27 39 -60 71 -65 62 -74 90 -44 136 38 57 189 116 343 133 52 6 97 8 102 6 4
-3 6 3 5 12 -3 17 -26 18 -304 21 l-302 2 0 -112z"/>
<path d="M1160 579 c-47 -10 -70 -41 -70 -95 0 -68 16 -94 59 -95 107 -1 168
-6 179 -13 16 -9 16 -53 0 -58 -7 -3 -36 -6 -64 -7 -41 -2 -55 2 -65 17 -9 11
-31 21 -56 24 -47 7 -59 -8 -48 -55 14 -54 31 -59 183 -55 168 4 177 9 177
100 0 46 -4 62 -23 80 -20 20 -35 23 -117 26 -83 3 -95 6 -100 23 -10 31 13
49 60 49 53 0 75 -8 75 -26 0 -15 0 -15 49 -18 18 -1 39 4 46 10 18 18 6 73
-19 86 -24 14 -213 19 -266 7z"/>
<path d="M560 522 c-78 -21 -144 -61 -170 -105 -28 -45 -25 -58 21 -115 35
-44 40 -57 37 -93 -5 -74 -72 -99 -265 -99 l-104 0 4 -37 4 -38 84 2 c192 6
332 69 345 156 4 26 -4 45 -40 102 -25 39 -46 77 -46 86 0 39 59 64 183 76 44
4 57 9 57 22 0 9 3 26 6 39 6 19 3 22 -22 21 -16 0 -58 -8 -94 -17z"/>
<path d="M2520 534 c-32 -13 -40 -38 -40 -120 0 -140 16 -154 174 -154 116 0
133 8 137 60 4 68 4 68 -48 62 -46 -5 -67 -17 -57 -33 9 -15 -38 -38 -60 -30
-16 6 -23 20 -28 57 -10 67 6 98 53 102 30 3 37 -1 47 -23 10 -22 17 -26 50
-23 35 3 37 5 40 39 5 55 -13 64 -142 66 -61 1 -118 0 -126 -3z"/>
<path d="M1581 520 c-58 -14 -66 -30 -66 -135 0 -85 2 -97 23 -117 21 -21 31
-23 130 -22 158 2 174 16 169 149 -2 54 -8 79 -21 94 -31 34 -153 50 -235 31z
m130 -70 c15 -9 19 -22 19 -65 0 -58 -1 -59 -42 -69 -37 -9 -68 22 -68 67 0
38 16 63 45 70 11 3 21 5 23 6 2 0 12 -4 23 -9z"/>
<path d="M1900 392 c0 -76 2 -141 4 -143 2 -2 29 -2 60 -1 l56 4 0 74 c0 68 2
77 26 99 29 27 65 32 82 13 6 -7 12 -52 14 -100 l3 -88 58 0 57 0 0 114 c0
111 -1 115 -26 135 -41 32 -105 37 -157 12 -53 -26 -53 -26 -60 -1 -4 17 -14
20 -61 20 l-56 0 0 -138z"/>
<path d="M2310 389 l0 -140 53 3 52 3 3 138 3 137 -56 0 -55 0 0 -141z"/>
</g>
</svg>
