<?xml version="1.0" standalone="no"?>
<!DOCTYPE svg PUBLIC "-//W3C//DTD SVG 20010904//EN"
 "http://www.w3.org/TR/2001/REC-SVG-20010904/DTD/svg10.dtd">
<svg version="1" xmlns="http://www.w3.org/2000/svg"
 width="2850pt" height="1083pt" viewBox="0 0 2850 1083"
 preserveAspectRatio="xMidYMid meet">

<g transform="translate(0,1083) scale(0.1,-0.1)"
fill="#FF8C00" stroke="none">
<path d="M 0 6925 l 0 -3905 l 14250 0 l 14250 0 l 0 3905 l 0 3905 l -14250 0 l -14250 0 l 0 -3905 z m 28148 3659 c 180 -90 227 -317 96 -463 c -64 -71 -133 -103 -224 -103 c -257 0 -394 302 -223 492 c 64 71 128 100 223 100 c 62 0 86 -5 128 -26 z m -25568 -610 c 260 -77 318 -406 101 -571 c -155 -119 -393 -58 -482 123 c -20 41 -24 64 -24 139 c 0 79 4 97 27 142 c 77 145 228 212 378 167 z m 835 -23 c 113 -56 166 -141 173 -274 c 4 -83 3 -91 -27 -152 c -35 -70 -87 -121 -160 -157 c -67 -33 -196 -32 -266 2 c -70 34 -139 108 -164 175 c -105 281 177 537 444 406 z m 768 6 c 65 -30 127 -90 159 -155 c 34 -69 33 -206 -1 -277 c -32 -63 -92 -124 -156 -155 c -70 -34 -199 -36 -266 -2 c -187 92 -249 312 -136 479 c 88 128 258 175 400 110 z m 769 5 c 62 -27 134 -95 166 -157 c 23 -43 27 -62 27 -140 c 0 -74 -5 -98 -24 -137 c -31 -63 -88 -121 -153 -155 c -71 -36 -198 -40 -269 -7 c -95 44 -159 121 -185 226 c -43 166 67 344 241 389 c 48 13 147 3 197 -19 z m 1651 -6 c 66 -32 121 -85 155 -151 c 23 -43 27 -62 27 -140 c 0 -104 -20 -157 -85 -224 c -178 -183 -482 -100 -546 149 c -20 78 -13 134 27 217 c 41 86 119 150 214 174 c 55 15 152 3 208 -25 z m 772 5 c 62 -28 130 -94 162 -160 c 39 -79 40 -191 2 -271 c -33 -70 -89 -126 -159 -159 c -80 -38 -192 -37 -271 2 c -67 32 -132 99 -162 165 c -33 73 -30 190 7 262 c 65 130 176 195 314 185 c 34 -2 82 -13 107 -24 z m 780 0 c 62 -28 130 -94 162 -160 c 37 -74 39 -191 6 -263 c -30 -66 -96 -133 -162 -165 c -47 -24 -69 -28 -136 -28 c -67 0 -89 4 -136 28 c -66 32 -132 99 -162 165 c -30 66 -30 188 0 253 c 40 89 122 160 213 186 c 58 17 158 9 215 -16 z m 765 5 c 98 -41 170 -124 196 -227 c 38 -149 -39 -306 -184 -372 c -71 -33 -188 -31 -263 4 c -68 32 -120 83 -156 152 c -24 45 -28 63 -28 142 c 0 78 4 97 27 140 c 43 83 130 153 215 175 c 49 12 148 5 193 -14 z m 750 8 c 64 -19 130 -62 164 -107 c 127 -166 73 -403 -112 -494 c -49 -24 -69 -28 -142 -28 c -79 0 -90 3 -150 36 c -108 59 -170 161 -170 279 c 0 147 83 263 223 311 c 65 23 118 24 187 3 z m 823 -17 c 67 -30 125 -87 158 -153 c 20 -41 24 -64 24 -144 c 0 -87 -3 -100 -30 -149 c -33 -60 -86 -109 -154 -143 c -66 -32 -196 -32 -262 0 c -118 58 -180 149 -187 273 c -3 54 0 91 12 126 c 60 181 265 270 439 190 z m 1652 -6 c 65 -32 113 -80 151 -151 c 15 -28 19 -56 19 -135 c 0 -92 -2 -104 -30 -154 c -33 -60 -87 -110 -154 -143 c -66 -33 -196 -32 -262 0 c -118 58 -180 149 -187 273 c -3 54 0 91 11 123 c 65 191 271 276 452 187 z m 768 6 c 65 -30 127 -90 159 -155 c 34 -69 33 -206 -1 -277 c -32 -63 -92 -124 -156 -155 c -41 -20 -65 -25 -135 -25 c -73 0 -93 4 -142 28 c -220 108 -245 418 -45 556 c 95 65 216 76 320 28 z m 772 4 c 59 -26 131 -95 163 -156 c 23 -43 27 -62 27 -140 c 0 -79 -4 -97 -28 -142 c -36 -69 -88 -120 -156 -152 c -74 -34 -192 -37 -262 -5 c -95 44 -159 121 -185 226 c -43 166 67 344 241 389 c 46 12 151 2 200 -20 z m 780 0 c 62 -28 130 -94 162 -160 c 37 -74 39 -190 6 -263 c -30 -66 -96 -133 -162 -165 c -47 -24 -69 -28 -136 -28 c -67 0 -89 4 -136 28 c -67 32 -132 99 -162 165 c -29 65 -30 188 0 253 c 40 89 122 160 213 186 c 58 17 158 9 215 -16 z m 780 0 c 62 -28 127 -91 160 -158 c 25 -49 29 -70 29 -138 c 0 -60 -5 -92 -21 -127 c -30 -66 -95 -133 -162 -165 c -79 -39 -191 -40 -271 -2 c -70 33 -126 89 -159 159 c -35 73 -37 191 -4 261 c 40 89 122 160 213 186 c 58 17 158 9 215 -16 z m 1807 -3 c 105 -48 169 -131 186 -241 c 19 -118 -24 -228 -117 -304 c -207 -171 -521 -19 -521 251 c 0 236 239 391 452 294 z m 781 -1 c 67 -30 125 -87 158 -153 c 20 -41 24 -64 24 -144 c 0 -80 -4 -102 -23 -138 c -32 -60 -97 -122 -157 -152 c -70 -34 -199 -36 -266 -2 c -117 57 -180 149 -187 272 c -5 91 8 143 51 207 c 88 128 258 175 400 110 z m 780 0 c 107 -49 176 -149 185 -268 c 9 -133 -51 -244 -168 -308 c -60 -33 -71 -36 -150 -36 c -73 0 -93 4 -142 28 c -220 108 -245 418 -45 556 c 95 65 216 76 320 28 z m 772 4 c 62 -28 130 -94 162 -160 c 24 -48 28 -68 28 -141 c 0 -72 -4 -92 -27 -135 c -35 -68 -92 -122 -158 -154 c -80 -38 -192 -37 -271 2 c -65 32 -132 100 -160 161 c -79 179 28 398 218 446 c 54 13 156 4 208 -19 z m 780 0 c 62 -28 130 -94 162 -160 c 37 -74 39 -190 6 -263 c -30 -67 -104 -141 -166 -169 c -78 -35 -192 -34 -268 4 c -66 32 -132 99 -162 165 c -30 65 -30 187 0 253 c 40 89 122 160 213 186 c 58 17 158 9 215 -16 z m 2497 1 c 62 -27 134 -95 166 -157 c 23 -43 27 -62 27 -140 c 0 -79 -4 -97 -28 -142 c -36 -69 -88 -120 -156 -152 c -46 -21 -70 -26 -136 -26 c -95 0 -150 22 -219 85 c -188 174 -106 480 149 551 c 47 13 147 4 197 -19 z m 783 -1 c 62 -28 130 -94 162 -160 c 37 -74 39 -190 6 -263 c -30 -66 -96 -133 -162 -165 c -47 -24 -69 -28 -136 -28 c -67 0 -89 4 -136 28 c -66 32 -132 99 -162 165 c -30 66 -30 188 0 253 c 40 89 122 160 213 186 c 58 17 158 9 215 -16 z m 3118 -4 c 114 -52 179 -150 185 -277 c 5 -99 -22 -172 -86 -238 c -71 -72 -129 -96 -232 -97 c -68 0 -94 4 -131 23 c -71 35 -125 87 -158 154 c -26 51 -31 73 -31 132 c 0 89 12 132 53 193 c 88 128 258 175 400 110 z m 780 -1 c 66 -32 121 -85 155 -151 c 23 -43 27 -62 27 -140 c 0 -74 -4 -98 -23 -137 c -31 -62 -89 -121 -154 -155 c -45 -23 -65 -27 -138 -28 c -73 0 -93 4 -142 28 c -220 108 -245 418 -45 556 c 96 66 220 76 320 27 z m -25501 -774 c 145 -64 226 -231 183 -377 c -29 -100 -82 -164 -175 -211 c -46 -24 -68 -28 -135 -29 c -67 0 -89 4 -136 28 c -66 32 -132 99 -162 165 c -33 71 -31 189 4 262 c 59 124 175 194 309 186 c 37 -2 85 -12 112 -24 z m 746 13 c 139 -42 244 -199 226 -340 c -17 -138 -105 -242 -239 -280 c -143 -42 -299 29 -373 168 c -23 45 -27 63 -27 142 c 0 75 4 98 24 139 c 71 145 234 217 389 171 z m 814 -13 c 72 -35 124 -87 159 -157 c 30 -61 31 -69 27 -152 c -7 -135 -60 -218 -176 -275 c -209 -103 -448 36 -460 269 c -8 152 73 274 218 327 c 62 22 172 16 232 -12 z m 783 -3 c 63 -30 124 -90 156 -154 c 20 -42 24 -65 24 -140 c 0 -105 -20 -157 -87 -225 c -61 -64 -136 -95 -228 -95 c -182 0 -321 137 -322 319 c 0 144 89 268 226 312 c 61 20 170 12 231 -17 z m 777 -2 c 66 -30 127 -89 159 -155 c 19 -39 24 -63 24 -137 c 0 -78 -4 -97 -27 -140 c -73 -140 -229 -211 -374 -170 c -159 44 -266 210 -235 364 c 43 216 257 328 453 238 z m 1640 0 c 66 -30 128 -90 160 -155 c 19 -39 23 -63 23 -137 c 0 -78 -4 -97 -27 -140 c -131 -249 -475 -240 -587 16 c -30 69 -35 127 -17 199 c 52 201 262 303 448 217 z m 779 1 c 69 -32 125 -88 158 -158 c 35 -73 37 -191 4 -262 c -30 -66 -96 -133 -162 -165 c -48 -24 -68 -28 -136 -27 c -132 1 -231 63 -290 181 c -25 49 -29 70 -29 138 c 0 93 20 149 79 214 c 98 108 245 139 376 79 z m 771 4 c 65 -28 133 -94 165 -161 c 36 -73 39 -190 6 -263 c -30 -66 -95 -133 -162 -165 c -47 -23 -69 -28 -136 -28 c -67 0 -89 5 -136 28 c -222 109 -252 393 -57 550 c 84 68 219 84 320 39 z m 780 0 c 26 -11 67 -39 92 -62 c 173 -159 119 -437 -104 -537 c -54 -25 -183 -22 -242 4 c -62 28 -134 96 -166 158 c -23 43 -27 62 -27 140 c 0 76 4 97 24 135 c 50 95 99 138 194 172 c 66 23 164 19 229 -10 z m 792 -6 c 158 -77 225 -272 147 -431 c -57 -115 -161 -180 -291 -180 c -174 0 -307 125 -318 300 c -6 89 13 150 66 219 c 37 50 116 102 175 117 c 60 15 162 4 221 -25 z m 767 5 c 67 -32 120 -81 154 -142 c 27 -49 30 -62 30 -149 c 0 -80 -4 -103 -24 -144 c -100 -203 -367 -244 -525 -81 c -75 76 -106 207 -76 315 c 25 91 107 175 208 213 c 63 23 170 18 233 -12 z m 1641 1 c 65 -32 120 -83 153 -143 c 28 -50 30 -62 30 -154 c 0 -79 -4 -107 -19 -135 c -38 -72 -86 -119 -154 -152 c -57 -28 -77 -33 -142 -33 c -60 0 -86 5 -131 27 c -114 53 -181 151 -187 273 c -2 39 1 89 7 110 c 25 95 106 179 209 218 c 63 23 172 18 234 -11 z m 801 -15 c 114 -62 172 -168 165 -300 c -14 -272 -333 -400 -541 -218 c -20 18 -51 61 -68 96 c -68 138 -27 307 97 402 c 97 73 235 81 347 20 z m 759 11 c 67 -31 119 -81 155 -151 c 24 -45 28 -63 28 -142 c 0 -78 -4 -97 -27 -140 c -32 -62 -104 -130 -166 -158 c -59 -26 -188 -29 -242 -4 c -144 64 -229 215 -201 354 c 43 217 257 331 453 241 z m 770 4 c 65 -28 133 -94 165 -161 c 37 -74 39 -190 6 -263 c -30 -66 -96 -133 -162 -165 c -47 -23 -69 -28 -136 -28 c -67 0 -89 5 -136 28 c -67 32 -132 99 -162 165 c -29 65 -30 188 0 253 c 39 86 117 156 206 185 c 57 19 161 12 219 -14 z m 780 0 c 65 -28 133 -94 165 -161 c 24 -47 28 -68 28 -136 c -1 -68 -5 -89 -30 -138 c -34 -68 -97 -130 -163 -160 c -73 -33 -190 -30 -263 6 c -66 32 -132 99 -162 165 c -33 71 -31 189 4 262 c 59 124 175 194 309 186 c 37 -2 85 -12 112 -24 z m 1776 13 c 76 -23 150 -87 190 -167 c 30 -58 34 -74 34 -143 c -1 -66 -5 -87 -32 -141 c -97 -198 -362 -242 -517 -87 c -111 111 -125 295 -32 422 c 81 109 224 155 357 116 z m 817 -16 c 60 -28 125 -91 157 -151 c 19 -36 23 -58 23 -138 c 0 -110 -21 -166 -88 -233 c -61 -61 -137 -92 -227 -92 c -65 0 -85 5 -142 33 c -69 34 -118 82 -153 152 c -22 43 -31 169 -16 225 c 25 95 115 188 211 220 c 65 21 172 14 235 -16 z m 784 -3 c 65 -34 121 -89 152 -152 c 34 -70 35 -207 1 -276 c -69 -139 -234 -215 -377 -173 c -227 66 -313 324 -169 512 c 89 117 261 156 393 89 z m 772 2 c 67 -31 121 -83 157 -151 c 23 -45 27 -64 27 -137 c 0 -66 -5 -96 -22 -132 c -30 -66 -96 -133 -162 -165 c -47 -24 -69 -28 -136 -28 c -116 1 -199 44 -265 141 c -123 177 -37 421 173 490 c 62 20 163 12 228 -18 z m 771 4 c 65 -28 133 -94 165 -161 c 37 -74 39 -190 6 -263 c -30 -66 -96 -133 -162 -165 c -47 -23 -69 -28 -136 -28 c -67 0 -89 5 -136 28 c -222 109 -252 393 -57 550 c 84 68 219 84 320 39 z m 780 0 c 145 -64 226 -230 184 -377 c -30 -102 -81 -163 -176 -211 c -46 -24 -68 -28 -135 -29 c -68 0 -89 4 -137 28 c -163 80 -234 279 -155 434 c 61 120 175 186 307 179 c 37 -2 85 -12 112 -24 z m 1730 -4 c 67 -31 119 -81 155 -151 c 24 -45 28 -63 28 -142 c 0 -78 -4 -97 -27 -140 c -32 -62 -104 -130 -166 -158 c -59 -26 -188 -29 -242 -4 c -212 95 -274 351 -125 516 c 98 108 245 139 377 79 z m 770 4 c 65 -28 133 -94 165 -161 c 37 -74 39 -190 6 -263 c -30 -66 -96 -133 -162 -165 c -47 -23 -69 -28 -136 -28 c -67 0 -89 5 -136 28 c -222 109 -252 393 -57 550 c 84 68 219 84 320 39 z m 780 0 c 65 -28 133 -94 165 -161 c 24 -47 28 -68 28 -136 c -1 -68 -5 -89 -30 -138 c -59 -118 -158 -180 -290 -181 c -68 -1 -88 3 -136 27 c -66 32 -132 99 -162 165 c -17 36 -22 66 -22 127 c 0 96 21 150 86 220 c 69 75 147 107 249 101 c 37 -2 85 -12 112 -24 z m 2343 -3 c 70 -33 139 -106 165 -176 c 44 -119 15 -258 -73 -346 c -61 -61 -137 -92 -227 -92 c -65 0 -85 5 -142 33 c -69 34 -118 82 -153 152 c -22 43 -31 169 -16 225 c 25 95 115 188 211 220 c 64 21 172 14 235 -16 z m 784 -3 c 63 -33 122 -92 153 -154 c 19 -39 23 -63 23 -137 c 0 -78 -4 -97 -27 -140 c -94 -179 -312 -236 -475 -124 c -179 124 -183 391 -7 526 c 90 68 230 81 333 29 z m -25494 -778 c 62 -32 129 -103 158 -166 c 15 -34 21 -68 21 -122 c 1 -66 -4 -85 -32 -142 c -18 -37 -49 -81 -69 -99 c -164 -144 -415 -95 -510 99 c -24 49 -28 69 -28 142 c 0 70 4 93 24 130 c 49 92 104 142 191 174 c 67 24 181 17 245 -16 z m 752 10 c 79 -29 163 -113 189 -188 c 29 -86 24 -175 -15 -254 c -57 -117 -161 -181 -291 -180 c -91 1 -148 23 -215 85 c -65 60 -97 127 -103 216 c -15 236 213 405 435 321 z m 5558 -10 c 66 -34 119 -89 153 -157 c 36 -75 38 -191 3 -262 c -50 -104 -152 -179 -262 -194 c -142 -20 -303 89 -345 232 c -49 170 49 346 226 404 c 50 17 172 4 225 -23 z m 773 3 c 66 -34 128 -96 159 -160 c 23 -46 28 -69 28 -131 c 0 -134 -70 -241 -195 -298 c -69 -32 -160 -35 -240 -8 c -75 26 -159 110 -188 189 c -65 172 28 366 202 423 c 61 20 181 13 234 -15 z m 3205 -5 c 66 -32 121 -90 154 -163 c 22 -47 25 -65 21 -136 c -4 -96 -28 -154 -90 -217 c -123 -128 -329 -127 -457 1 c -57 58 -85 120 -89 204 c -5 87 8 139 51 201 c 68 100 162 147 284 141 c 52 -3 87 -11 126 -31 z m 769 6 c 70 -30 141 -106 168 -178 c 18 -48 21 -73 18 -134 c -6 -92 -36 -157 -103 -219 c -67 -62 -124 -84 -215 -85 c -91 0 -166 30 -229 93 c -164 164 -104 445 113 531 c 67 26 179 23 248 -8 z m 4122 8 c 218 -82 279 -367 115 -531 c -127 -127 -330 -126 -458 2 c -57 58 -85 120 -89 204 c -5 87 8 139 51 201 c 85 125 241 176 381 124 z m 809 -14 c 61 -29 114 -82 149 -148 c 19 -36 23 -58 23 -138 c 0 -111 -19 -162 -86 -229 c -127 -127 -331 -129 -456 -4 c -62 62 -87 123 -91 221 c -4 77 -2 88 27 147 c 37 76 101 136 175 165 c 73 29 184 23 259 -14 z m 2334 1 c 67 -35 119 -88 152 -157 c 34 -72 36 -190 5 -260 c -62 -135 -215 -219 -349 -192 c -111 23 -196 85 -242 180 c -39 80 -40 192 -2 272 c 31 65 84 122 142 152 c 66 33 87 38 167 34 c 57 -2 87 -9 127 -29 z m 778 1 c 139 -71 211 -229 170 -374 c -65 -231 -348 -316 -524 -158 c -186 167 -127 462 110 548 c 66 24 180 16 244 -16 z m 1720 2 c 151 -73 223 -250 164 -405 c -64 -171 -267 -258 -429 -183 c -79 36 -125 80 -162 156 c -87 176 -2 377 191 449 c 55 21 176 12 236 -17 z m 782 -3 c 69 -35 120 -88 152 -156 c 35 -75 37 -192 4 -263 c -45 -99 -134 -167 -247 -189 c -149 -31 -318 76 -362 228 c -42 143 29 308 159 375 c 66 33 87 38 167 34 c 57 -2 87 -9 127 -29 z m 778 1 c 60 -31 130 -103 156 -162 c 82 -186 -35 -404 -239 -447 c -102 -21 -220 19 -294 99 c -158 172 -89 446 132 526 c 67 24 181 17 245 -16 z m 752 10 c 79 -29 163 -113 189 -188 c 29 -87 25 -174 -14 -253 c -58 -118 -161 -182 -293 -181 c -62 0 -87 5 -132 27 c -103 51 -176 155 -185 264 c -6 79 10 145 53 210 c 82 124 240 175 382 121 z m 1586 -12 c 61 -29 114 -82 149 -148 c 19 -36 23 -58 23 -138 c 0 -111 -19 -162 -86 -229 c -127 -127 -331 -129 -456 -4 c -62 62 -87 123 -91 221 c -4 77 -2 88 27 147 c 37 76 101 136 175 165 c 73 29 184 23 259 -14 z m 772 4 c 63 -30 124 -92 156 -155 c 20 -42 24 -65 24 -140 c 0 -78 -4 -97 -27 -140 c -14 -28 -47 -70 -73 -94 c -67 -62 -124 -84 -215 -85 c -66 -1 -84 3 -143 32 c -150 74 -218 241 -163 402 c 25 73 109 158 186 188 c 74 30 185 26 255 -8 z m -25493 -778 c 63 -31 121 -91 155 -160 c 23 -47 28 -70 28 -132 c 0 -285 -330 -428 -543 -235 c -23 20 -54 62 -69 93 c -24 49 -28 69 -28 142 c 0 69 5 94 25 135 c 33 67 108 139 172 164 c 73 29 193 25 260 -7 z m 784 -5 c 222 -113 240 -425 32 -558 c -209 -135 -481 3 -496 251 c -8 150 73 273 217 327 c 59 22 185 12 247 -20 z m 772 4 c 115 -59 182 -165 182 -287 c 0 -104 -22 -158 -94 -230 c -46 -46 -75 -65 -116 -79 c -164 -55 -334 19 -405 176 c -24 55 -27 70 -23 143 c 8 141 83 243 217 293 c 55 20 185 12 239 -16 z m 790 -6 c 60 -33 110 -84 144 -147 c 19 -36 23 -58 23 -138 c 0 -83 -3 -101 -27 -145 c -66 -127 -208 -200 -340 -175 c -260 50 -361 354 -180 543 c 69 72 137 97 247 94 c 66 -3 90 -8 133 -32 z m 3966 6 c 140 -69 214 -231 171 -376 c -43 -149 -160 -237 -312 -237 c -128 0 -235 69 -295 191 c -19 37 -23 63 -23 131 c 0 79 3 90 36 150 c 39 71 104 129 174 155 c 62 23 188 16 249 -14 z m 778 1 c 63 -31 121 -91 155 -160 c 56 -116 29 -266 -66 -361 c -156 -156 -420 -112 -518 87 c -24 49 -28 69 -28 142 c 0 70 4 94 25 135 c 33 67 108 139 172 164 c 73 29 193 25 260 -7 z m 3196 -1 c 66 -34 118 -87 152 -153 c 25 -51 30 -73 30 -133 c 0 -105 -22 -158 -94 -231 c -70 -69 -134 -97 -226 -97 c -92 0 -156 28 -226 97 c -72 73 -94 126 -94 230 c 0 137 84 252 219 303 c 55 20 185 12 239 -16 z m 790 -6 c 60 -33 110 -84 144 -147 c 19 -36 23 -58 23 -138 c 0 -80 -4 -102 -23 -138 c -152 -285 -552 -228 -612 86 c -18 94 12 192 81 267 c 73 79 140 106 254 102 c 66 -3 90 -8 133 -32 z m 749 14 c 68 -26 138 -92 173 -164 c 21 -41 25 -65 25 -135 c 0 -73 -4 -93 -28 -142 c -98 -199 -362 -243 -518 -87 c -47 47 -85 123 -94 190 c -20 136 78 295 211 343 c 60 22 163 20 231 -5 z m 798 -9 c 63 -31 124 -91 155 -155 c 34 -70 36 -199 2 -266 c -36 -73 -87 -125 -157 -160 c -118 -58 -257 -38 -358 50 c -47 42 -97 142 -104 213 c -14 137 79 282 214 333 c 60 23 187 15 248 -15 z m 777 2 c 65 -32 125 -94 156 -160 c 21 -45 26 -72 27 -132 c 0 -133 -70 -241 -193 -298 c -76 -34 -179 -34 -255 1 c -270 123 -257 497 21 602 c 58 22 186 15 244 -13 z m 1813 -4 c 126 -65 196 -201 174 -339 c -33 -211 -252 -329 -453 -245 c -51 21 -124 92 -154 151 c -24 44 -27 62 -27 145 c 0 79 4 102 23 137 c 43 82 107 138 191 170 c 59 22 185 12 246 -19 z m 783 -3 c 66 -36 117 -91 149 -162 c 34 -73 30 -193 -7 -267 c -54 -107 -172 -179 -290 -179 c -92 0 -156 28 -226 97 c -72 72 -94 126 -94 230 c 0 139 92 262 230 307 c 14 5 61 7 105 6 c 66 -3 90 -8 133 -32 z m 749 13 c 78 -29 152 -103 182 -183 c 58 -153 -9 -329 -152 -401 c -215 -109 -467 39 -471 276 c -1 88 25 157 82 221 c 93 104 228 136 359 87 z m 778 1 c 67 -25 141 -94 175 -164 c 21 -41 25 -65 25 -135 c 0 -73 -4 -93 -28 -142 c -94 -191 -335 -240 -503 -103 c -49 41 -100 135 -109 206 c -20 137 78 294 212 344 c 58 21 163 19 228 -6 z m 799 -8 c 66 -33 122 -91 155 -160 c 35 -75 36 -192 2 -262 c -35 -73 -86 -125 -156 -160 c -92 -45 -188 -45 -280 0 c -257 127 -237 494 33 596 c 59 23 186 15 246 -14 z m 778 1 c 64 -31 126 -96 157 -162 c 20 -43 25 -71 26 -130 c 0 -66 -5 -85 -33 -143 c -97 -196 -345 -241 -510 -92 c -23 20 -54 62 -69 93 c -24 49 -28 69 -28 142 c 0 70 4 94 25 135 c 33 67 108 139 172 164 c 73 29 193 25 260 -7 z m 1705 7 c 157 -59 243 -252 184 -410 c -84 -221 -366 -284 -532 -118 c -47 47 -85 123 -94 190 c -20 137 77 294 212 344 c 59 21 163 19 230 -6 z m 764 6 c 72 -25 138 -82 178 -155 c 33 -60 36 -71 36 -150 c 0 -68 -4 -94 -23 -131 c -36 -73 -87 -125 -157 -160 c -92 -45 -188 -45 -280 0 c -257 127 -236 497 33 596 c 50 18 158 18 213 0 z m 811 -13 c 65 -32 125 -94 156 -160 c 21 -45 26 -73 27 -132 c 0 -66 -4 -84 -33 -142 c -57 -117 -159 -180 -289 -180 c -128 0 -235 69 -295 191 c -19 37 -23 63 -23 131 c 0 79 3 90 36 150 c 39 71 104 129 174 155 c 61 22 188 16 247 -13 z m 783 -4 c 62 -32 130 -103 158 -166 c 29 -66 29 -180 0 -244 c -31 -69 -68 -113 -125 -149 c -134 -86 -312 -62 -416 57 c -148 167 -85 432 122 514 c 73 29 191 23 261 -12 z m 781 -1 c 67 -34 138 -114 160 -179 c 85 -258 -155 -500 -413 -414 c -66 22 -145 92 -181 160 c -24 45 -27 62 -27 146 c 0 79 4 102 23 137 c 43 82 107 138 191 170 c 59 22 185 12 247 -20 z m 782 -2 c 108 -58 163 -147 170 -271 c 4 -73 1 -88 -23 -143 c -71 -157 -241 -231 -405 -176 c -41 14 -70 33 -116 79 c -72 72 -94 126 -94 230 c 0 139 92 262 230 307 c 14 5 61 7 105 6 c 66 -3 90 -8 133 -32 z m 781 0 c 184 -101 228 -342 89 -499 c -191 -218 -558 -85 -562 204 c -1 88 25 158 81 220 c 75 83 141 111 258 107 c 66 -3 89 -8 134 -32 z m -24728 -773 c 91 -44 160 -135 179 -233 c 30 -151 -66 -315 -215 -365 c -73 -25 -186 -16 -254 21 c -233 127 -226 455 12 575 c 57 29 68 31 147 28 c 63 -2 97 -9 131 -26 z m 755 11 c 70 -24 165 -120 188 -191 c 25 -75 19 -191 -12 -252 c -35 -66 -89 -119 -157 -151 c -50 -24 -73 -29 -136 -29 c -64 0 -85 5 -137 30 c -114 58 -173 148 -180 276 c -4 73 -1 88 22 140 c 40 88 101 146 191 181 c 45 17 164 16 221 -4 z m 799 -11 c 65 -31 121 -86 157 -154 c 19 -36 23 -58 23 -138 c 0 -86 -3 -100 -29 -148 c -60 -108 -148 -163 -272 -170 c -73 -4 -88 -1 -143 23 c -120 54 -193 166 -193 295 c 0 95 26 156 96 226 c 73 72 120 92 226 93 c 63 1 85 -4 135 -27 z m 783 -3 c 121 -60 188 -174 180 -306 c -8 -122 -70 -216 -180 -275 c -36 -19 -58 -23 -138 -23 c -111 0 -162 19 -229 86 c -65 65 -95 137 -94 228 c 0 113 43 199 128 260 c 63 45 109 59 196 60 c 65 1 84 -3 137 -30 z m 3192 7 c 70 -37 118 -85 152 -154 c 104 -211 -36 -449 -272 -460 c -99 -5 -172 22 -238 86 c -72 71 -96 129 -96 232 c 1 92 12 126 63 197 c 34 47 89 87 148 109 c 53 20 196 14 243 -10 z m 784 -5 c 199 -98 244 -367 86 -519 c -69 -68 -120 -87 -230 -87 c -88 0 -99 2 -150 31 c -231 130 -224 455 13 574 c 57 29 68 31 147 28 c 65 -2 97 -9 134 -27 z m 3172 12 c 67 -23 164 -120 187 -187 c 27 -80 23 -179 -12 -251 c -57 -119 -161 -185 -291 -185 c -132 0 -239 70 -295 193 c -24 51 -27 68 -23 140 c 2 61 9 93 26 127 c 41 77 104 134 187 167 c 45 17 164 16 221 -4 z m 802 -13 c 66 -33 118 -85 154 -152 c 19 -36 23 -58 23 -138 c 0 -86 -3 -100 -29 -148 c -59 -106 -148 -163 -267 -170 c -111 -6 -167 15 -245 92 c -46 46 -65 75 -79 116 c -46 138 -1 287 113 371 c 58 43 107 57 193 58 c 65 1 84 -3 137 -29 z m 780 0 c 69 -35 125 -92 156 -159 c 16 -35 21 -66 21 -131 c 0 -73 -4 -93 -28 -142 c -30 -62 -83 -115 -149 -150 c -36 -19 -58 -23 -138 -23 c -79 0 -103 4 -142 23 c -63 31 -121 92 -155 160 c -65 132 -18 310 104 393 c 63 44 109 58 194 58 c 65 1 84 -3 137 -29 z m 791 -5 c 60 -33 106 -82 141 -152 c 36 -69 35 -196 0 -268 c -34 -71 -108 -139 -177 -165 c -78 -29 -186 -25 -257 9 c -99 49 -171 153 -183 264 c -11 107 49 231 141 294 c 66 45 97 53 196 50 c 72 -3 93 -7 139 -32 z m 761 11 c 70 -37 118 -85 152 -153 c 28 -58 33 -77 33 -143 c -1 -127 -68 -235 -181 -291 c -41 -20 -64 -24 -144 -24 c -87 0 -100 3 -149 30 c -176 97 -225 327 -102 483 c 41 51 88 86 150 109 c 51 19 195 12 241 -11 z m 1786 7 c 70 -24 165 -120 188 -191 c 39 -117 15 -238 -64 -325 c -73 -80 -124 -102 -240 -102 c -80 0 -102 4 -138 23 c -63 33 -114 84 -148 144 c -26 48 -29 62 -29 148 c 0 84 3 101 27 145 c 58 110 163 175 284 175 c 40 0 92 -7 120 -17 z m 794 -9 c 203 -94 255 -347 105 -513 c -20 -22 -64 -54 -97 -71 c -118 -58 -264 -35 -362 58 c -60 58 -96 142 -96 228 c 0 104 22 158 94 230 c 73 72 120 92 226 93 c 60 1 86 -4 130 -25 z m 788 -4 c 111 -56 173 -148 180 -270 c 7 -131 -54 -242 -169 -305 c -42 -22 -70 -30 -130 -33 c -91 -5 -150 11 -214 60 c -174 133 -172 390 3 519 c 58 43 107 57 193 58 c 65 1 84 -3 137 -29 z m 780 0 c 69 -35 125 -92 156 -159 c 30 -67 30 -198 -2 -262 c -33 -67 -83 -121 -143 -154 c -49 -27 -62 -30 -149 -30 c -110 0 -166 21 -233 88 c -138 138 -118 380 40 488 c 63 44 109 58 194 58 c 65 1 84 -3 137 -29 z m 772 6 c 65 -34 116 -84 150 -148 c 31 -56 34 -71 35 -143 c 0 -71 -4 -88 -33 -147 c -56 -115 -159 -178 -287 -178 c -128 0 -231 63 -287 178 c -29 59 -33 75 -32 147 c 1 87 13 123 63 192 c 34 47 89 87 148 109 c 53 20 196 14 243 -10 z m 2508 -7 c 121 -60 188 -174 180 -306 c -8 -122 -70 -216 -180 -275 c -36 -19 -58 -23 -138 -23 c -110 0 -161 19 -230 87 c -141 136 -122 380 37 489 c 63 44 109 58 194 58 c 65 1 84 -3 137 -30 z m 790 -4 c 62 -34 101 -75 139 -148 c 24 -45 28 -64 28 -137 c 0 -70 -5 -94 -25 -135 c -118 -243 -458 -249 -580 -11 c -32 63 -35 76 -34 150 c 1 114 45 199 132 259 c 66 47 108 58 202 54 c 71 -2 94 -8 138 -32 z m 1544 7 c 66 -32 125 -94 156 -160 c 55 -120 27 -265 -69 -361 c -67 -67 -118 -86 -229 -86 c -87 0 -100 3 -149 30 c -233 129 -226 455 12 575 c 57 29 68 31 147 28 c 64 -2 97 -9 132 -26 z m 754 11 c 70 -24 165 -120 188 -191 c 39 -117 15 -238 -64 -325 c -68 -74 -125 -101 -227 -105 c -71 -4 -89 -1 -136 21 c -71 32 -126 83 -163 149 c -26 48 -29 62 -29 148 c 0 80 4 102 23 138 c 62 116 166 182 288 182 c 40 0 92 -7 120 -17 z m 794 -9 c 68 -31 123 -84 158 -149 c 24 -44 27 -61 27 -145 c 0 -80 -4 -102 -23 -138 c -36 -67 -88 -119 -154 -152 c -52 -25 -73 -30 -137 -30 c -63 0 -86 5 -136 29 c -115 55 -178 148 -183 273 c -6 112 15 167 92 244 c 73 72 120 92 226 93 c 60 1 86 -4 130 -25 z m 788 -5 c 237 -118 243 -447 11 -574 c -42 -22 -70 -30 -130 -33 c -91 -5 -150 11 -214 60 c -174 133 -172 390 3 519 c 58 43 107 57 193 58 c 65 1 84 -3 137 -30 z m -23186 -765 c 61 -20 142 -93 175 -158 c 38 -74 43 -180 12 -261 c -30 -80 -104 -154 -184 -184 c -160 -61 -340 14 -409 169 c -67 148 -12 325 126 408 c 90 53 174 61 280 26 z m 783 -1 c 71 -23 154 -109 184 -188 c 59 -155 -13 -331 -164 -406 c -42 -20 -64 -24 -140 -24 c -78 0 -97 4 -141 27 c -28 15 -72 50 -97 78 c -113 126 -108 319 12 439 c 94 94 211 119 346 74 z m 3222 -14 c 68 -33 119 -85 154 -158 c 34 -70 33 -187 -3 -263 c -31 -66 -90 -127 -156 -159 c -68 -34 -206 -34 -274 -1 c -65 32 -125 94 -156 160 c -39 83 -38 194 1 274 c 30 62 84 116 147 148 c 92 47 188 47 287 -1 z m 780 0 c 71 -34 116 -81 152 -159 c 34 -73 35 -182 4 -252 c -28 -63 -96 -134 -158 -166 c -43 -23 -62 -27 -140 -27 c -76 0 -98 4 -140 24 c -63 32 -124 93 -156 156 c -33 68 -34 197 -3 266 c 80 172 270 241 441 158 z m 3190 5 c 115 -55 176 -150 181 -282 c 4 -77 2 -88 -27 -147 c -118 -240 -448 -248 -576 -14 c -34 62 -46 180 -25 245 c 58 186 273 281 447 198 z m 755 10 c 61 -20 142 -93 175 -158 c 38 -74 43 -180 12 -261 c -30 -80 -104 -154 -184 -184 c -78 -30 -188 -26 -253 8 c -204 105 -249 364 -92 521 c 92 92 210 118 342 74 z m 4148 0 c 171 -71 249 -266 175 -433 c -51 -113 -151 -181 -275 -189 c -131 -7 -241 54 -305 169 c -27 49 -30 62 -30 149 c 0 80 4 102 23 140 c 27 51 82 112 128 140 c 77 48 200 58 284 24 z m 722 15 c 71 -15 126 -48 181 -109 c 61 -67 81 -129 75 -229 c -19 -331 -461 -415 -609 -116 c -29 59 -31 70 -27 147 c 2 60 9 96 26 129 c 42 87 136 161 223 178 c 62 12 72 12 131 0 z m 2415 -30 c 68 -33 119 -85 154 -158 c 34 -70 33 -187 -3 -263 c -31 -66 -90 -127 -156 -159 c -68 -34 -206 -34 -274 -1 c -65 32 -125 94 -156 160 c -36 76 -37 193 -3 263 c 32 67 81 121 140 152 c 99 54 194 56 298 6 z m 780 0 c 71 -34 115 -80 152 -159 c 34 -72 36 -181 4 -252 c -28 -62 -96 -134 -158 -166 c -43 -23 -62 -27 -140 -27 c -106 0 -163 22 -230 89 c -66 66 -89 126 -90 226 c 0 100 20 154 83 222 c 98 106 244 132 379 67 z m 1656 26 c 295 -77 335 -471 62 -606 c -42 -20 -64 -24 -140 -24 c -78 0 -97 4 -140 27 c -62 32 -130 103 -158 166 c -31 70 -30 179 4 252 c 34 73 76 120 138 154 c 82 44 149 53 234 31 z m 833 -20 c 71 -31 128 -86 161 -153 c 39 -80 40 -191 1 -274 c -31 -66 -91 -128 -156 -160 c -68 -33 -206 -33 -274 1 c -66 32 -125 93 -156 159 c -36 77 -38 194 -4 263 c 82 168 264 238 428 164 z m 2331 5 c 63 -28 108 -66 144 -122 c 106 -164 45 -378 -133 -469 c -65 -34 -176 -37 -253 -8 c -80 30 -154 104 -184 184 c -31 81 -26 187 11 260 c 25 49 93 121 136 144 c 79 42 197 47 279 11 z m 715 19 c 71 -15 126 -48 181 -109 c 61 -67 81 -129 75 -229 c -19 -331 -461 -415 -609 -116 c -29 59 -31 70 -27 147 c 2 60 9 96 26 129 c 42 87 136 161 223 178 c 62 12 72 12 131 0 z m 830 -15 c 61 -20 136 -87 173 -156 c 27 -48 30 -62 30 -143 c 0 -109 -23 -164 -97 -237 c -67 -65 -139 -91 -238 -86 c -93 5 -161 39 -225 110 c -111 123 -105 318 14 437 c 93 93 211 119 343 75 z m -25523 -770 c 188 -52 289 -264 211 -441 c -27 -61 -94 -129 -159 -160 c -48 -24 -68 -28 -141 -28 c -73 0 -92 4 -137 28 c -66 34 -116 84 -150 150 c -24 45 -28 64 -28 137 c 0 98 20 152 80 219 c 87 96 201 130 324 95 z m 823 -17 c 105 -47 169 -131 189 -246 c 25 -138 -55 -283 -190 -345 c -69 -31 -198 -29 -266 4 c -64 31 -124 92 -156 155 c -20 42 -24 65 -24 140 c 0 78 4 97 27 140 c 86 161 262 225 420 152 z m 784 -1 c 61 -28 124 -88 155 -148 c 17 -32 24 -66 27 -130 c 4 -76 1 -92 -21 -141 c -34 -74 -88 -131 -155 -164 c -49 -24 -69 -28 -142 -28 c -68 0 -94 5 -131 23 c -67 33 -121 83 -154 143 c -27 49 -30 62 -30 149 c 0 80 4 103 24 144 c 78 159 266 226 427 152 z m 779 0 c 110 -50 177 -151 183 -276 c 5 -99 -22 -172 -86 -238 c -72 -73 -129 -97 -232 -97 c -73 0 -93 4 -142 28 c -176 86 -235 311 -125 474 c 88 128 259 175 402 109 z m 770 5 c 59 -26 131 -95 163 -156 c 23 -43 27 -62 27 -140 c 0 -75 -4 -98 -24 -140 c -32 -63 -92 -124 -156 -155 c -69 -34 -197 -35 -267 -3 c -136 62 -217 216 -189 355 c 24 116 116 218 225 252 c 64 20 160 14 221 -13 z m 3209 -6 c 63 -30 129 -98 159 -163 c 33 -73 30 -190 -6 -263 c -15 -31 -49 -77 -75 -101 c -160 -150 -415 -99 -511 102 c -35 73 -37 191 -4 261 c 77 170 271 243 437 164 z m 725 19 c 188 -52 289 -264 211 -441 c -27 -61 -94 -129 -159 -160 c -48 -24 -68 -28 -141 -28 c -73 0 -92 4 -137 28 c -193 101 -242 341 -102 500 c 89 102 203 137 328 101 z m 3247 -18 c 64 -30 123 -87 155 -152 c 20 -41 24 -64 24 -144 c 0 -80 -4 -102 -23 -138 c -56 -106 -151 -170 -265 -179 c -128 -11 -247 53 -311 167 c -29 51 -31 62 -31 150 c 0 80 4 103 24 144 c 78 159 266 226 427 152 z m 780 -1 c 113 -55 176 -151 182 -275 c 5 -99 -22 -172 -86 -238 c -72 -73 -129 -97 -232 -97 c -73 0 -93 4 -142 28 c -188 92 -239 331 -107 498 c 87 110 256 147 385 84 z m 769 6 c 59 -26 131 -95 163 -156 c 23 -43 27 -62 27 -140 c 0 -106 -22 -160 -91 -229 c -68 -68 -123 -90 -224 -91 c -73 0 -93 4 -142 28 c -131 64 -207 213 -178 350 c 23 115 115 218 224 251 c 64 20 160 14 221 -13 z m 780 0 c 62 -28 130 -94 162 -160 c 39 -79 40 -191 2 -271 c -73 -153 -249 -228 -401 -170 c -75 28 -150 96 -185 168 c -36 74 -39 191 -6 264 c 40 88 131 164 227 189 c 47 12 151 2 201 -20 z m 788 -6 c 89 -45 144 -111 172 -210 c 33 -113 -4 -236 -96 -319 c -162 -146 -403 -99 -506 97 c -24 45 -28 64 -28 137 c 0 98 20 152 80 219 c 99 109 250 139 378 76 z m 1813 -5 c 96 -47 156 -128 172 -234 c 23 -143 -48 -280 -176 -343 c -49 -24 -69 -28 -142 -28 c -103 0 -160 24 -232 97 c -64 66 -91 139 -86 238 c 11 237 249 376 464 270 z m 770 6 c 64 -30 123 -87 155 -152 c 20 -41 24 -64 24 -144 c 0 -87 -3 -100 -30 -149 c -33 -60 -87 -110 -154 -143 c -37 -18 -63 -23 -131 -23 c -73 0 -93 4 -142 28 c -109 53 -169 146 -176 272 c -5 102 20 174 82 239 c 101 103 243 131 372 72 z m 2338 -1 c 63 -30 129 -98 159 -163 c 33 -73 30 -190 -6 -263 c -103 -210 -371 -253 -526 -84 c -65 70 -86 124 -86 220 c 0 93 21 148 80 214 c 98 109 247 139 379 76 z m 726 19 c 189 -56 288 -264 211 -440 c -28 -61 -95 -129 -160 -161 c -48 -24 -68 -28 -141 -28 c -73 0 -92 4 -137 28 c -193 101 -242 341 -102 500 c 89 102 206 138 329 101 z m 1765 -13 c 59 -26 131 -95 163 -156 c 23 -43 27 -62 27 -140 c 0 -74 -5 -98 -24 -137 c -31 -63 -88 -121 -153 -155 c -46 -24 -65 -28 -138 -28 c -73 0 -93 4 -141 28 c -143 70 -216 225 -175 372 c 54 191 264 294 441 216 z m 780 0 c 62 -28 130 -94 162 -160 c 24 -47 28 -69 28 -136 c 0 -95 -28 -166 -91 -228 c -160 -159 -421 -113 -521 92 c -37 74 -39 190 -6 263 c 41 90 130 164 227 189 c 47 12 151 2 201 -20 z m 3121 -5 c 109 -50 176 -152 182 -276 c 5 -100 -23 -176 -87 -240 c -72 -71 -129 -95 -231 -95 c -73 0 -93 4 -142 28 c -67 33 -121 90 -155 164 c -22 49 -25 65 -21 141 c 5 100 26 150 88 212 c 98 98 240 123 366 66 z m 769 5 c 59 -26 131 -95 163 -156 c 23 -43 27 -62 27 -140 c 0 -75 -4 -98 -24 -140 c -32 -63 -92 -124 -156 -155 c -69 -34 -197 -35 -267 -3 c -168 77 -241 280 -159 441 c 78 152 264 220 416 153 z m -25481 -785 c 78 -38 141 -111 166 -193 c 24 -79 25 -113 4 -183 c -29 -98 -93 -172 -183 -214 c -72 -32 -189 -30 -262 7 c -66 32 -132 99 -162 165 c -31 67 -30 188 1 257 c 38 83 116 152 205 181 c 64 21 165 12 231 -20 z m 770 4 c 70 -34 123 -86 158 -157 c 27 -56 32 -77 32 -138 c 0 -126 -72 -238 -193 -297 c -69 -34 -186 -32 -263 4 c -107 50 -176 149 -186 265 c -12 154 72 282 221 335 c 66 24 169 18 231 -12 z m 778 0 c 66 -31 119 -80 153 -141 c 28 -50 30 -62 30 -154 c 0 -92 -2 -104 -30 -154 c -34 -61 -86 -110 -154 -142 c -36 -18 -64 -23 -131 -23 c -79 -1 -89 2 -150 35 c -110 61 -170 161 -170 286 c 0 146 87 261 233 309 c 57 19 162 11 219 -16 z m 781 -3 c 67 -30 125 -87 158 -153 c 20 -41 24 -64 24 -139 c 0 -75 -4 -98 -24 -139 c -33 -66 -91 -122 -160 -155 c -75 -35 -192 -36 -262 -2 c -73 35 -125 86 -160 156 c -27 55 -31 75 -31 140 c 0 65 4 85 31 140 c 44 88 121 151 216 176 c 53 14 149 3 208 -24 z m 3969 5 c 65 -28 133 -94 165 -161 c 36 -73 39 -190 6 -263 c -30 -66 -95 -133 -162 -165 c -47 -24 -69 -28 -136 -28 c -67 0 -89 4 -136 28 c -222 109 -252 393 -57 550 c 84 68 219 84 320 39 z m 780 0 c 134 -59 220 -219 190 -354 c -25 -108 -87 -189 -182 -236 c -78 -38 -191 -39 -270 -1 c -66 32 -123 86 -158 154 c -23 43 -27 62 -27 140 c 0 78 4 97 27 140 c 64 122 177 188 308 181 c 37 -2 85 -12 112 -24 z m 3204 -4 c 59 -27 124 -90 156 -150 c 20 -37 23 -58 23 -143 c 0 -115 -16 -156 -88 -229 c -67 -66 -126 -90 -227 -90 c -78 -1 -90 2 -148 34 c -110 59 -172 161 -172 283 c 0 34 5 79 10 99 c 25 90 119 181 219 213 c 63 20 164 13 227 -17 z m 777 -1 c 67 -30 125 -87 158 -153 c 20 -41 24 -64 24 -139 c 0 -75 -4 -98 -24 -139 c -33 -66 -91 -122 -160 -155 c -75 -35 -192 -36 -262 -2 c -73 35 -125 86 -160 156 c -27 55 -31 75 -31 140 c 0 65 4 85 31 140 c 44 88 121 151 216 176 c 53 14 149 3 208 -24 z m 778 1 c 67 -31 121 -83 157 -151 c 23 -45 27 -63 27 -142 c 0 -78 -4 -97 -27 -140 c -35 -68 -92 -122 -158 -154 c -45 -21 -69 -26 -135 -26 c -67 0 -89 4 -137 28 c -95 46 -157 131 -180 242 c -9 45 -8 67 5 121 c 51 203 262 308 448 222 z m 771 4 c 65 -28 133 -94 165 -161 c 37 -74 39 -190 6 -263 c -30 -66 -96 -133 -162 -165 c -47 -24 -69 -28 -136 -28 c -67 0 -89 4 -136 28 c -67 32 -132 99 -162 165 c -29 65 -30 188 0 253 c 39 86 117 156 206 185 c 57 19 161 12 219 -14 z m 780 0 c 65 -28 133 -94 165 -161 c 24 -47 28 -68 27 -136 c 0 -99 -31 -171 -100 -235 c -69 -63 -124 -85 -219 -85 c -67 0 -89 4 -136 28 c -66 32 -132 99 -162 165 c -31 67 -30 188 1 257 c 38 83 116 152 205 181 c 57 19 161 12 219 -14 z m 1810 -2 c 72 -33 124 -85 159 -155 c 27 -55 31 -74 31 -141 c -1 -65 -5 -86 -32 -140 c -34 -69 -86 -120 -159 -155 c -35 -18 -64 -23 -127 -23 c -73 -1 -87 2 -150 34 c -112 58 -174 158 -174 286 c 0 188 154 333 341 320 c 38 -3 86 -14 111 -26 z m 793 -9 c 237 -117 235 -456 -3 -573 c -59 -29 -76 -33 -147 -32 c -96 0 -157 25 -222 90 c -72 73 -88 114 -88 229 c 0 92 2 104 30 154 c 86 156 268 212 430 132 z m 2317 11 c 65 -28 133 -94 165 -161 c 37 -74 39 -190 6 -263 c -30 -66 -96 -133 -162 -165 c -47 -24 -69 -28 -136 -28 c -67 0 -89 4 -136 28 c -222 109 -252 393 -57 550 c 84 68 219 84 320 39 z m 780 0 c 65 -29 133 -94 165 -161 c 23 -47 27 -69 27 -136 c 0 -99 -31 -171 -100 -235 c -69 -63 -124 -85 -219 -85 c -67 0 -89 4 -136 28 c -208 102 -253 371 -86 524 c 50 46 74 61 132 80 c 55 18 160 11 217 -15 z m 1729 -4 c 67 -31 121 -83 157 -151 c 23 -45 27 -63 27 -142 c 0 -78 -4 -97 -27 -140 c -35 -68 -92 -122 -158 -154 c -73 -35 -191 -37 -262 -4 c -136 62 -220 220 -190 355 c 48 214 261 325 453 236 z m 771 4 c 65 -28 133 -94 165 -161 c 37 -74 39 -190 6 -263 c -30 -66 -96 -133 -162 -165 c -47 -24 -69 -28 -136 -28 c -67 0 -89 4 -136 28 c -222 109 -252 393 -57 550 c 84 68 219 84 320 39 z m 3136 -13 c 230 -118 231 -442 2 -568 c -61 -33 -71 -36 -150 -35 c -67 0 -95 5 -131 23 c -68 32 -120 81 -154 142 c -28 50 -30 62 -30 154 c 0 92 2 104 30 154 c 87 157 271 213 433 130 z m 765 8 c 65 -30 126 -89 158 -155 c 19 -39 24 -63 24 -137 c 0 -79 -4 -96 -28 -142 c -36 -69 -88 -120 -156 -152 c -76 -35 -194 -37 -262 -3 c -73 36 -125 87 -160 158 c -109 221 61 475 307 460 c 38 -2 83 -13 117 -29 z"/>
<path d="M 27920 10544 c -45 -20 -96 -69 -123 -119 c -16 -30 -21 -58 -21 -110 c 0 -80 20 -129 76 -182 c 45 -43 101 -65 168 -65 c 101 0 181 52 226 147 c 58 121 -3 277 -128 329 c -47 20 -152 20 -198 0 z m 184 -96 c 40 -35 43 -78 11 -116 c -15 -18 -33 -32 -41 -32 c -20 0 -18 -10 9 -39 c 13 -15 35 -45 50 -68 l 27 -43 l -32 0 c -29 0 -36 6 -57 46 c -29 55 -74 94 -107 94 c -23 0 -24 -3 -24 -70 c 0 -68 -1 -70 -25 -70 l -25 0 l 0 160 l 0 160 l 94 0 c 84 0 98 -3 120 -22 z"/>
<path d="M 27940 10380 l 0 -50 l 51 0 c 66 0 89 13 89 51 c 0 35 -27 49 -96 49 l -44 0 l 0 -50 z"/>
<path d="M 0 1425 l 0 -1425 l 14250 0 l 14250 0 l 0 1425 l 0 1425 l -14250 0 l -14250 0 l 0 -1425 z m 26540 1065 c 213 -15 592 -60 713 -86 l 27 -6 l 0 -392 c 0 -216 -3 -395 -6 -398 c -3 -3 -29 0 -57 8 c -228 59 -802 82 -1000 39 c -176 -37 -248 -125 -250 -305 c -3 -146 49 -224 179 -272 c 83 -30 400 -37 622 -14 c 130 14 380 52 475 72 l 27 6 l 0 -340 l 0 -340 l -67 -16 c -89 -20 -384 -62 -548 -78 c -204 -20 -684 -17 -825 5 c -311 48 -528 141 -691 294 c -152 144 -240 329 -274 583 c -70 508 106 889 503 1089 c 139 70 370 130 577 150 c 129 12 426 12 595 1 z m -23850 -77 c 237 -59 386 -166 470 -336 c 56 -115 71 -181 77 -338 c 8 -215 -31 -359 -141 -514 c -121 -168 -327 -285 -580 -330 c -71 -12 -177 -15 -517 -15 l -429 0 l 0 -235 l 0 -235 l -530 0 l -530 0 l 0 1015 l 0 1016 l 1048 -4 c 1024 -3 1049 -4 1132 -24 z m 1850 -988 l 0 -1015 l -530 0 l -530 0 l 0 1015 l 0 1015 l 530 0 l 530 0 l 0 -1015 z m 1644 595 c 165 -231 303 -420 308 -420 c 4 0 8 189 8 420 l 0 420 l 495 0 l 495 0 l 0 -1015 l 0 -1015 l -467 0 l -468 1 l -365 459 l -365 459 l -3 -460 l -2 -459 l -500 0 l -500 0 l 0 1015 l 0 1015 l 533 0 l 532 0 l 299 -420 z m 3866 405 c 129 -19 215 -47 286 -93 c 142 -92 201 -221 192 -421 c -6 -112 -29 -181 -86 -256 c -93 -122 -271 -208 -487 -233 l -70 -8 l 65 -8 c 246 -28 345 -54 437 -116 c 101 -68 150 -164 160 -311 c 17 -248 -113 -434 -355 -513 c -160 -52 -108 -49 -1284 -53 l -1108 -4 l 0 1016 l 0 1015 l 1078 0 c 887 0 1094 -3 1172 -15 z m 3201 -1000 l 336 -1015 l -548 0 c -414 0 -549 3 -549 12 c 0 6 -14 65 -31 130 l -32 118 l -349 -2 l -350 -3 l -38 -123 c -21 -68 -40 -125 -42 -127 c -3 -3 -245 -4 -539 -3 l -535 3 l 327 995 c 180 547 330 1003 332 1013 c 5 16 54 17 844 17 l 839 0 l 335 -1015 z m 1589 350 l 0 -665 l 458 -2 l 457 -3 l 3 -347 l 2 -348 l -985 0 l -985 0 l 0 1015 l 0 1015 l 525 0 l 525 0 l 0 -665 z m 2220 0 l 0 -665 l 455 0 l 455 0 l 0 -350 l 0 -350 l -985 0 l -985 0 l 0 1015 l 0 1015 l 530 0 l 530 0 l 0 -665 z m 4520 -350 l 0 -1015 l -530 0 l -530 0 l 0 1015 l 0 1015 l 530 0 l 530 0 l 0 -1015 z m 1715 590 l 300 -420 l 3 423 l 2 422 l 500 0 l 500 0 l 0 -1015 l 0 -1015 l -468 0 l -469 0 l -369 462 l -369 463 l -3 -462 l -2 -463 l -495 0 l -495 0 l 0 1015 l 0 1015 l 532 -2 l 532 -3 l 301 -420 z m 4805 -1091 c 114 -26 203 -98 228 -183 c 15 -49 15 -143 0 -193 c -27 -92 -131 -164 -272 -189 c -85 -14 -251 -7 -323 15 c -73 23 -143 73 -177 128 c -33 55 -46 156 -27 225 c 25 90 120 171 235 199 c 73 18 258 17 336 -2 z m -9144 -66 c -3 -13 -63 -180 -134 -373 l -129 -350 l -160 -3 l -160 -2 l 73 362 c 41 200 76 369 79 376 c 3 9 57 12 221 12 l 216 0 l -6 -22 z"/>
<path d="M 1570 1639 l 0 -211 l 218 5 c 224 5 265 11 323 50 c 103 68 97 265 -11 326 c -53 29 -148 41 -352 41 l -178 0 l 0 -211 z"/>
<path d="M 8860 1766 l 0 -146 l 248 0 c 221 0 251 2 289 19 c 56 26 77 61 77 127 c -1 62 -20 96 -67 121 c -28 16 -66 18 -289 21 l -258 3 l 0 -145 z"/>
<path d="M 8860 1030 l 0 -151 l 263 3 c 225 3 266 5 294 20 c 54 30 73 64 73 128 c 0 65 -19 98 -73 128 c -28 14 -69 17 -294 20 l -263 4 l 0 -152 z"/>
<path d="M 12066 1959 c -3 -8 -51 -169 -107 -359 c -56 -190 -104 -351 -106 -357 c -4 -10 44 -13 222 -13 c 211 0 226 1 221 18 c -3 9 -53 175 -112 367 c -58 193 -108 352 -110 354 c -2 2 -6 -2 -8 -10 z"/>
</g>
</svg>
