<?xml version="1.0" encoding="UTF-8"?>
<!DOCTYPE svg PUBLIC "-//W3C//DTD SVG 1.1//EN" "http://www.w3.org/Graphics/SVG/1.1/DTD/svg11.dtd">
<svg xmlns="http://www.w3.org/2000/svg" version="1.1" width="145px" height="145px" style="shape-rendering:geometricPrecision; text-rendering:geometricPrecision; image-rendering:optimizeQuality; fill-rule:evenodd; clip-rule:evenodd" xmlns:xlink="http://www.w3.org/1999/xlink">
<g><path style="opacity:1" fill="#FF8C00" d="M 62.5,3.5 C 92.3875,1.19729 115.888,12.1973 133,36.5C 149.731,68.714 145.565,97.8807 120.5,124C 88.761,148.229 56.761,148.563 24.5,125C -2.62466,97.458 -6.45799,66.958 13,33.5C 25.4452,16.6988 41.9452,6.69885 62.5,3.5 Z M 65.5,8.5 C 97.6892,7.56883 120.523,21.5688 134,50.5C 143.98,87.7002 131.813,114.867 97.5,132C 63.4877,142.995 35.9877,134.161 15,105.5C 0.0706253,75.6136 4.23729,48.7803 27.5,25C 38.6988,15.8954 51.3654,10.3954 65.5,8.5 Z"/></g>
<g><path style="opacity:1" fill="#FF8C00" d="M 107.5,46.5 C 108.496,46.5858 109.329,46.2524 110,45.5C 110.483,46.448 110.649,47.448 110.5,48.5C 104.69,66.765 98.1898,84.765 91,102.5C 84.7576,87.6851 78.2576,73.0185 71.5,58.5C 65.4247,73.2317 59.2581,87.8983 53,102.5C 44.6877,80.9641 36.8544,59.6308 29.5,38.5C 37.5165,46.6824 45.3498,55.0158 53,63.5C 58.4681,59.0334 63.6347,54.2 68.5,49C 66.57,45.6661 65.4033,42.1661 65,38.5C 67.0673,41.07 69.5673,43.07 72.5,44.5C 74.4829,43.018 76.3163,41.3513 78,39.5C 77.3333,42.8333 76.6667,46.1667 76,49.5C 81.3012,53.7998 86.3012,58.4664 91,63.5C 96.7029,57.9647 102.203,52.2981 107.5,46.5 Z"/></g>
<g><path style="opacity:1" fill="#FF8C00" d="M 110.5,48.5 C 110.649,47.448 110.483,46.448 110,45.5C 109.329,46.2524 108.496,46.5858 107.5,46.5C 108.879,43.9265 110.879,42.4265 113.5,42C 112.578,44.294 111.578,46.4606 110.5,48.5 Z"/></g>
</svg>
