<?xml version="1.0" standalone="no"?>
<!DOCTYPE svg PUBLIC "-//W3C//DTD SVG 20010904//EN"
 "http://www.w3.org/TR/2001/REC-SVG-20010904/DTD/svg10.dtd">
<svg version="1" xmlns="http://www.w3.org/2000/svg"
 width="1000pt" height="516pt" viewBox="0 0 1000 516"
 preserveAspectRatio="xMidYMid meet">

<g transform="translate(0,516) scale(0.1,-0.1)"
fill="#FF8C00" stroke="none">
<path d="M 630 4366 l 0 -795 l -217 -3 c -206 -3 -221 -4 -263 -26 c -58 -31 -86 -57 -118 -112 l -27 -45 l 0 -800 c 0 -771 1 -801 19 -839 c 27 -53 80 -104 135 -129 c 41 -19 69 -22 259 -25 l 212 -4 l 0 -794 l 0 -794 l 4370 0 l 4370 0 l 0 794 l 0 794 l 213 4 c 236 5 255 9 327 74 c 23 21 51 56 63 78 c 22 41 22 42 25 814 c 2 511 -1 786 -8 812 c -17 64 -69 130 -130 164 l -55 31 l -217 3 l -218 4 l -2 791 l -3 792 l -4367 3 l -4368 2 l 0 -794 z m 8250 -37 l 0 -380 l -156 -267 c -86 -147 -159 -270 -163 -275 c -4 -4 -192 -6 -418 -5 l -411 3 l 144 245 l 144 245 l -775 3 l -775 2 l 0 405 l 0 405 l 1205 0 l 1205 0 l 0 -381 z m -5260 -20 l 0 -382 l -152 -263 l -153 -263 l -417 -1 l -417 0 l 140 236 c 76 130 139 238 139 240 c 0 2 -349 4 -775 4 l -775 0 l 0 405 l 0 405 l 1205 0 l 1205 0 l 0 -381 z m 2610 -4 l 0 -386 l -152 -259 l -152 -260 l -413 0 c -227 0 -413 2 -413 4 c 0 2 59 103 130 224 c 72 122 133 228 136 237 c 6 13 -76 15 -770 15 l -776 0 l 0 405 l 0 405 l 1205 0 l 1205 0 l 0 -385 z m 3547 -1028 c 22 -12 36 -29 43 -55 c 8 -25 10 -234 8 -670 l -3 -634 l -27 -23 c -15 -13 -47 -26 -70 -30 c -24 -3 -2169 -4 -4768 -3 c -4140 3 -4728 5 -4747 18 c -12 8 -27 26 -33 40 c -7 17 -10 232 -8 666 c 3 717 0 682 75 702 c 25 7 1606 10 4768 9 c 4490 -2 4732 -3 4762 -20 z m -7441 -1544 c -8 -16 -87 -152 -175 -303 l -161 -275 l 825 -3 l 825 -2 l 0 -395 l 0 -395 l -1265 0 l -1265 0 l 0 363 l 0 362 l 198 337 l 197 337 l 418 1 l 418 0 l -15 -27 z m 2624 20 c 0 -5 -78 -141 -173 -303 l -173 -295 l 828 -3 l 828 -2 l 0 -395 l 0 -395 l -1270 0 l -1270 0 l 0 359 l 0 359 l 143 244 c 79 133 169 287 201 341 l 57 97 l 415 0 c 228 0 414 -3 414 -7 z m 2622 -25 c -51 -84 -322 -550 -322 -554 c 0 -2 371 -4 825 -4 l 825 0 l 0 -395 l 0 -395 l -1265 0 l -1265 0 l 0 364 l 0 363 l 192 327 l 192 326 l 419 0 l 419 0 l -20 -32 z"/>
<path d="M 7380 4270 l 0 -241 l 82 3 l 82 3 l -2 130 c -2 72 -6 138 -9 149 c -3 10 -1 17 5 15 c 5 -2 72 -71 148 -152 l 138 -148 l 75 3 l 76 3 l 0 235 l 0 235 l -79 0 l -80 0 l 3 -147 c 1 -82 1 -148 -2 -148 c -3 0 -67 68 -142 150 l -137 150 l -79 0 l -79 0 l 0 -240 z"/>
<path d="M 2040 4270 l 0 -240 l 76 0 l 75 0 l -3 164 c -2 91 -1 162 2 160 c 2 -3 34 -76 71 -162 l 66 -157 l 83 0 l 83 0 l 66 159 l 66 159 l 3 -161 l 2 -162 l 75 0 l 75 0 l 0 240 l 0 241 l -116 -3 l -117 -3 l -67 -174 l -68 -174 l -19 44 c -10 24 -43 104 -73 177 l -54 132 l -113 0 l -113 0 l 0 -240 z"/>
<path d="M 4850 4270 l 0 -240 l 55 0 l 55 0 l 0 100 l 0 100 l 115 0 l 115 0 l 0 45 l 0 45 l -115 0 l -115 0 l 0 50 l 0 50 l 136 0 l 135 0 l -3 43 l -3 42 l -187 3 l -188 2 l 0 -240 z"/>
<path d="M 3485 2941 c -252 -72 -373 -307 -284 -547 c 17 -44 39 -75 88 -125 c 102 -101 204 -139 376 -139 c 176 0 287 40 374 136 c 45 49 79 123 66 144 c -3 6 -54 10 -113 10 l -107 -1 l -18 -39 c -13 -28 -34 -49 -65 -68 c -41 -24 -57 -27 -132 -27 c -68 0 -93 5 -125 22 c -105 56 -151 169 -126 308 c 15 81 52 133 121 168 c 50 26 63 28 141 25 c 72 -2 91 -7 122 -28 c 20 -14 44 -40 54 -58 l 18 -32 l 110 6 c 60 4 111 8 113 9 c 2 2 -6 26 -18 54 c -38 87 -128 155 -247 186 c -80 21 -270 19 -348 -4 z"/>
<path d="M 4581 2945 c -134 -38 -249 -133 -293 -243 c -18 -46 -22 -77 -23 -157 c 0 -91 3 -106 31 -166 c 57 -119 175 -209 312 -238 c 68 -14 226 -14 294 0 c 87 18 171 64 221 119 c 45 50 86 134 73 148 c -4 4 -57 9 -117 12 l -109 5 l -5 -26 c -14 -62 -112 -119 -204 -119 c -196 0 -306 165 -245 371 c 19 65 80 129 141 147 c 60 18 161 15 208 -7 c 37 -16 88 -64 97 -91 c 2 -7 39 -8 111 -4 c 102 7 107 8 107 29 c 0 32 -58 114 -107 151 c -79 60 -141 77 -298 81 c -102 2 -154 -1 -194 -12 z"/>
<path d="M 1090 2870 l 0 -80 l 224 -2 l 224 -3 l -239 -252 l -239 -253 l 0 -70 l 0 -70 l 375 0 l 375 0 l 0 75 l 0 75 l -240 0 c -132 0 -240 3 -240 6 c 0 3 106 117 235 254 l 235 248 l 0 76 l 0 76 l -355 0 l -355 0 l 0 -80 z"/>
<path d="M 2316 2898 c -13 -29 -94 -209 -180 -401 c -86 -191 -156 -350 -156 -353 c 0 -2 59 -3 131 -2 l 131 3 l 32 80 l 32 80 l 171 3 l 170 2 l 34 -82 l 34 -83 l 120 -3 c 65 -1 124 -1 131 2 c 9 3 -46 131 -169 393 c -100 213 -186 394 -190 401 c -6 8 -45 12 -138 12 l -130 0 l -23 -52 z m 214 -282 c 27 -76 50 -142 50 -147 c 0 -5 -47 -9 -105 -9 c -58 0 -105 4 -105 9 c 0 7 39 122 96 280 c 2 8 6 12 9 10 c 2 -3 27 -67 55 -143 z"/>
<path d="M 6650 2551 l 0 -401 l 115 0 l 115 0 l 0 146 l 0 146 l 114 -4 c 154 -4 162 -10 196 -144 c 40 -153 29 -144 170 -144 l 119 0 l -24 43 c -13 23 -33 84 -44 136 c -24 107 -44 148 -89 176 c -38 24 -39 31 -8 39 c 37 9 87 56 107 101 c 53 115 -13 238 -149 280 c -46 14 -111 18 -339 22 l -283 5 l 0 -401 z m 514 225 c 71 -30 69 -132 -4 -168 c -28 -14 -61 -18 -157 -18 l -123 0 l 0 100 l 0 100 l 125 0 c 84 0 137 -5 159 -14 z"/>
<path d="M 7760 2545 l 0 -406 l 108 3 l 107 3 l 0 400 l 0 400 l -107 3 l -108 3 l 0 -406 z"/>
<path d="M 8560 2930 c -9 -16 -328 -723 -347 -768 c -4 -10 23 -12 128 -10 l 133 3 l 32 80 l 32 80 l 168 0 l 168 0 l 32 -80 l 32 -80 l 131 -3 c 72 -1 131 1 131 5 c 0 4 -83 184 -183 398 l -183 390 l -131 3 c -124 2 -133 1 -143 -18 z m 250 -461 c 0 -5 -47 -9 -105 -9 c -70 0 -105 4 -105 11 c 0 9 63 194 92 269 c 9 22 16 9 64 -119 c 30 -79 54 -148 54 -152 z"/>
<path d="M 5546 2538 c -97 -216 -176 -396 -176 -400 c 0 -5 58 -8 129 -8 l 129 0 l 34 85 l 33 85 l 170 0 l 170 0 l 33 -85 l 34 -85 l 130 0 c 108 0 129 2 126 15 c -2 7 -84 187 -183 400 l -180 385 l -136 0 l -136 0 l -177 -392 z m 373 61 c 29 -78 50 -143 48 -146 c -3 -2 -51 -2 -109 -1 l -105 3 l 51 143 c 27 78 53 142 57 142 c 3 0 30 -64 58 -141 z"/>
</g>
</svg>
