<?xml version="1.0" encoding="UTF-8"?>
<svg version="1.1" id="Ebene_1" xmlns="http://www.w3.org/2000/svg" xmlns:xlink="http://www.w3.org/1999/xlink" x="0px" y="0px" width="1200px" height="411.5px" viewBox="0 0 1200 411.5">
<path fill="#ff8c00" d="M 541.3 3 h 93.1 c 51.2 0 74 18.9 74 70.5 v 38 c 0 49.6 -16.2 73.1 -67.4 73.1 h -99.7 L 541.3 3 z M 590.3 142.5 h 42.9 c 18.1 0 24.7 -11.9 24.7 -31 v -38 c 0 -23.5 -7.6 -28.3 -24.7 -28.3 h -42.9 V 142.5 z M 770.6 153.4 l -9.1 31.2 h -51 L 765.7 3 h 74.5 L 896 184.6 h -50 l -9.6 -31.2 H 770.6 z M 803.9 39.4 h -0.5 L 781.1 118 h 45.6 L 803.9 39.4 z M 977.2 184.6 h -49 V 45.2 h -56.7 V 3 h 164.9 v 42.1 h -59.2 L 977.2 184.6 z M 1071.7 153.4 l -9.1 31.2 h -51 L 1066.8 3 h 74.5 l 55.9 181.6 h -50 l -9.6 -31.2 H 1071.7 z M 1105 39.4 h -0.5 l -22.3 78.7 h 45.6 L 1105 39.4 z M 593.2 298.3 h 84.9 V 332 h -84.9 v 35.4 H 685 V 407 H 544.2 V 225.4 h 139 v 39.7 h -90 V 298.3 z M 758.2 375.8 l -9.1 31.2 h -51 l 55.1 -181.6 h 74.5 L 883.6 407 h -50 l -9.6 -31.2 H 758.2 z M 791.5 261.8 H 791 l -22.3 78.7 h 45.6 L 791.5 261.8 z M 978.4 296.6 c 56.7 3.9 70.8 10.7 70.8 52.3 c 0 30 1.3 59.6 -83 59.6 c -48.8 0 -81.3 -1 -81.3 -60.5 H 934 c 0 18.9 7.2 20.8 32.2 20.8 c 24 0 31.9 -1.5 31.9 -16.7 c 0 -15.7 -2.8 -15.5 -26.8 -17 l -11.2 -0.7 c -47.3 -3.1 -74.9 -2.9 -74.9 -55 s 30.9 -55.4 81 -55.4 c 41.9 0 77.7 0.7 77.7 50.8 v 7.5 h -49.1 c 0 -18.6 -8.2 -18.6 -28.6 -18.6 c -27.6 0 -29.9 5.3 -29.9 15.5 c 0 14.5 7.4 15 21 16 L 978.4 296.6 z M 1150.5 407 h -49 V 267.6 h -47 v -42.1 H 1200 v 42.1 h -49.5 V 407 z M 304.4 201.1 H 467 v -120 c -10.7 -2.9 -22 -4.5 -33.6 -4.5 C 363.7 76.6 306.8 132.1 304.4 201.1 z M 433.4 334.9 c 11.6 0 22.9 -1.6 33.6 -4.5 v -120 H 304.4 C 306.8 279.4 363.7 334.9 433.4 334.9 z M 433.4 0 c -96.7 0 -177.9 66.8 -199.9 156.7 C 211.5 66.8 130.4 0 33.6 0 C 22.2 0 10.9 1 0 2.8 v 68.8 c 10.8 -2.7 22 -4.1 33.6 -4.1 c 76.3 0 138.4 62.1 138.4 138.4 S 109.9 344.1 33.6 344.1 c -11.6 0 -22.9 -1.4 -33.6 -4.1 v 68.8 c 10.9 1.8 22.2 2.8 33.6 2.8 c 96.7 0 177.9 -66.8 199.9 -156.7 c 22 90 103.1 156.7 199.9 156.7 c 11.5 0 22.7 -1 33.6 -2.8 V 340 c -10.8 2.7 -22 4.1 -33.6 4.1 C 357.1 344.1 295 282 295 205.7 S 357.1 67.4 433.4 67.4 c 11.6 0 22.9 1.4 33.6 4.1 V 2.8 C 456.1 1 444.8 0 433.4 0 L 433.4 0 z M 162.8 205.8 c 0 -71.2 -57.9 -129.1 -129.1 -129.1 C 22 76.6 10.7 78.2 0 81.1 v 249.3 c 10.7 2.9 22 4.5 33.6 4.5 C 104.8 334.9 162.8 277 162.8 205.8 L 162.8 205.8 z"/>
</svg>