<?xml version="1.0" standalone="no"?>
<!DOCTYPE svg PUBLIC "-//W3C//DTD SVG 20010904//EN"
 "http://www.w3.org/TR/2001/REC-SVG-20010904/DTD/svg10.dtd">
<svg version="1.0" xmlns="http://www.w3.org/2000/svg"
 width="640.000000pt" height="640.000000pt" viewBox="0 0 640.000000 640.000000"
 preserveAspectRatio="xMidYMid meet">

<g transform="translate(0.000000,640.000000) scale(0.100000,-0.100000)"
fill="#FF8C00" stroke="none">
<path d="M4360 5144 c-146 -6 -398 -17 -560 -24 -162 -6 -309 -16 -326 -21
-17 -5 -44 -23 -60 -40 l-29 -30 -3 -757 c-2 -745 -2 -758 18 -790 28 -45 64
-57 210 -71 69 -7 168 -16 220 -22 107 -10 466 -44 640 -59 63 -6 131 -13 151
-15 50 -7 314 59 360 90 28 18 39 34 48 69 14 58 16 1455 1 1505 -15 55 -45
78 -139 106 -47 15 -122 37 -165 51 -44 13 -84 23 -90 23 -6 -1 -130 -8 -276
-15z m235 -116 c3 -13 4 -376 3 -808 l-3 -785 -35 -3 c-19 -2 -109 4 -200 12
-279 27 -824 76 -847 76 l-23 0 0 740 c0 584 3 741 13 744 10 3 856 39 1034
45 47 1 53 -1 58 -21z m226 -30 l109 -31 0 -742 0 -742 -107 -27 c-60 -14
-111 -26 -115 -26 -9 0 -11 1600 -2 1600 3 0 54 -14 115 -32z"/>
<path d="M3586 3895 c-19 -20 -21 -49 -3 -63 14 -12 30 -13 535 -43 339 -21
353 -21 372 -4 25 22 25 37 3 57 -14 12 -100 19 -418 37 -220 12 -416 24 -436
27 -26 4 -41 1 -53 -11z"/>
<path d="M3746 3754 c-12 -11 -16 -35 -16 -89 0 -66 3 -76 23 -89 27 -18 509
-59 543 -46 28 11 34 29 34 106 0 75 -20 104 -72 104 -18 0 -118 7 -223 15
-242 19 -270 19 -289 -1z m297 -69 c109 -8 202 -17 207 -20 6 -4 10 -19 10
-36 0 -28 -2 -29 -48 -29 -27 0 -95 4 -153 10 -57 5 -139 12 -181 15 l-78 7 0
34 c0 41 -23 39 243 19z"/>
<path d="M3440 3296 c-52 -28 -133 -72 -180 -98 -47 -25 -152 -83 -235 -128
-215 -119 -326 -179 -440 -240 -55 -29 -104 -56 -110 -60 -5 -4 -68 -39 -140
-77 -71 -39 -231 -126 -355 -194 -124 -68 -324 -176 -445 -240 -161 -86 -225
-125 -237 -145 -16 -26 -18 -66 -18 -430 0 -305 3 -404 13 -416 21 -28 54 -31
76 -9 20 20 21 31 21 411 0 234 4 390 9 390 5 0 47 -14 93 -31 46 -17 153 -55
238 -85 85 -31 182 -66 215 -79 33 -12 70 -26 83 -30 l22 -6 0 -399 0 -400 25
-16 c20 -13 31 -14 49 -6 21 9 24 19 30 98 4 48 7 176 6 283 -1 108 -1 243 -1
301 l1 105 133 71 c181 98 621 330 1197 632 140 73 282 148 355 187 33 18 137
72 230 120 94 48 217 114 275 145 134 73 304 160 313 160 4 0 7 -55 7 -122
l-1 -123 -97 -47 c-53 -25 -176 -88 -272 -138 -379 -198 -1039 -545 -1110
-582 -41 -22 -178 -94 -305 -160 -671 -350 -645 -336 -645 -367 0 -33 16 -51
46 -51 12 0 129 57 260 126 132 70 336 177 454 239 118 62 307 161 420 220
113 59 261 137 330 172 69 36 157 82 195 103 77 41 207 109 420 220 77 40 173
90 213 112 40 21 77 38 83 38 6 0 8 -93 7 -252 l-3 -251 -270 -114 c-335 -140
-518 -218 -1045 -443 -228 -98 -518 -221 -645 -275 -410 -174 -440 -187 -452
-197 -16 -13 -17 -60 -1 -76 20 -20 43 -14 166 39 64 28 191 82 282 120 91 39
210 90 265 114 55 23 172 73 260 110 88 37 212 90 275 117 63 28 214 92 335
143 121 51 299 126 395 168 96 41 238 100 315 132 77 32 155 69 174 83 62 46
62 44 59 558 l-3 466 -24 19 c-49 40 -32 47 -596 -246 -71 -37 -140 -74 -152
-81 -12 -8 -84 -46 -160 -85 -76 -39 -194 -102 -263 -139 -69 -37 -181 -97
-250 -132 -298 -156 -427 -223 -790 -415 -212 -112 -392 -203 -400 -203 -13 0
-104 32 -528 188 -72 27 -82 38 -46 57 25 13 253 138 429 236 77 42 194 106
260 142 234 125 474 257 818 446 191 105 380 207 420 227 90 45 107 60 107 95
0 28 -24 50 -52 48 -7 0 -56 -24 -108 -53z"/>
<path d="M3620 3144 c-50 -16 -76 -37 -66 -53 10 -15 45 -14 100 5 64 22 166
16 203 -13 38 -28 42 -53 8 -53 -42 0 -94 -27 -107 -56 -11 -23 -10 -28 11
-45 29 -24 52 -24 99 0 52 26 73 53 79 100 5 36 2 44 -29 75 -19 19 -52 39
-73 45 -54 15 -170 12 -225 -5z"/>
<path d="M3553 3028 c-75 -16 -104 -87 -45 -109 70 -27 177 38 144 87 -7 11
-47 35 -54 33 -2 -1 -22 -5 -45 -11z"/>
<path d="M3328 2997 c-35 -29 -48 -58 -48 -103 0 -86 117 -136 269 -114 90 13
126 29 126 55 0 27 -32 30 -90 11 -99 -34 -235 -4 -243 53 -4 25 41 81 65 81
7 0 13 9 13 20 0 29 -57 27 -92 -3z"/>
<path d="M1937 2278 c-28 -10 -41 -39 -35 -79 3 -22 9 -24 62 -27 33 -2 72 2
87 8 35 15 55 60 39 89 -9 18 -20 21 -68 20 -31 0 -69 -5 -85 -11z"/>
<path d="M2189 2167 c-39 -26 -49 -65 -24 -91 38 -37 151 -5 170 49 8 23 6 30
-14 46 -32 26 -90 24 -132 -4z"/>
<path d="M1594 1761 c-84 -51 -93 -202 -19 -316 78 -120 234 -126 285 -12 35
77 23 170 -33 254 -57 85 -160 118 -233 74z m132 -90 c58 -35 85 -142 50 -195
-51 -78 -156 -12 -164 104 -4 48 -1 58 22 83 30 32 50 34 92 8z"/>
</g>
</svg>
